<svg width="478" height="434" viewBox="0 0 478 434" fill="none" xmlns="http://www.w3.org/2000/svg">
<path d="M141.377 414.552L128.16 402.804C127.688 402.389 127.111 402.116 126.494 402.016C125.877 401.917 125.245 401.995 124.669 402.242L120.87 398.871C120.68 398.7 120.449 398.584 120.2 398.536C122.969 395.219 124.364 390.941 124.091 386.601C123.817 382.261 121.897 378.198 118.734 375.267C115.571 372.336 111.411 370.765 107.131 370.885C102.851 371.005 98.7828 372.806 95.7836 375.91C92.7843 379.014 91.0874 383.178 91.05 387.526C91.0125 391.875 92.6373 396.068 95.5825 399.225C98.5278 402.381 102.564 404.255 106.842 404.451C111.119 404.647 115.305 403.15 118.518 400.276C118.583 400.582 118.744 400.858 118.976 401.064L122.764 404.436C122.597 405.062 122.608 405.724 122.797 406.344C122.985 406.964 123.343 407.516 123.828 407.938L137.046 419.675C137.716 420.272 138.593 420.575 139.483 420.516C140.373 420.457 141.203 420.042 141.792 419.361C142.38 418.68 142.678 417.79 142.621 416.886C142.563 415.982 142.154 415.139 141.483 414.541L141.377 414.552ZM107.642 402.523C104.789 402.526 102 401.668 99.627 400.06C97.254 398.452 95.4042 396.165 94.3115 393.489C93.2187 390.812 92.9323 387.867 93.4883 385.025C94.0444 382.184 95.4179 379.573 97.4352 377.525C99.4525 375.476 102.023 374.081 104.821 373.517C107.619 372.952 110.519 373.243 113.155 374.352C115.79 375.462 118.042 377.341 119.626 379.751C121.209 382.16 122.053 384.993 122.051 387.89C122.043 391.769 120.522 395.486 117.822 398.228C115.121 400.97 111.461 402.515 107.642 402.523Z" fill="#263238"/>
<path d="M227.65 6.11185C227.65 8.94336 225.895 11.2345 223.724 11.2345C221.553 11.2345 219.807 8.94336 219.807 6.11185C219.807 3.28034 221.563 1 223.724 1C225.884 1 227.65 3.29115 227.65 6.11185Z" stroke="white" stroke-linecap="round" stroke-linejoin="round"/>
<path d="M231.673 22.9064H215.327L216.242 15.7087C216.361 14.7956 216.802 13.9572 217.483 13.349C218.164 12.7409 219.039 12.4043 219.946 12.4017H227.065C227.972 12.4043 228.847 12.7409 229.528 13.349C230.209 13.9572 230.65 14.7956 230.768 15.7087L231.673 22.9064Z" stroke="white" stroke-linecap="round" stroke-linejoin="round"/>
<path d="M245.986 6.11185C245.986 8.94336 244.23 11.2345 242.07 11.2345C239.91 11.2345 238.143 8.94336 238.143 6.11185C238.143 3.28034 239.899 1 242.07 1C244.241 1 245.986 3.29115 245.986 6.11185Z" stroke="white" stroke-linecap="round" stroke-linejoin="round"/>
<path d="M250.03 22.9064H233.684L234.589 15.7087C234.707 14.7956 235.148 13.9572 235.829 13.349C236.51 12.7409 237.385 12.4043 238.292 12.4017H245.412C246.319 12.4043 247.194 12.7409 247.875 13.349C248.556 13.9572 248.997 14.7956 249.115 15.7087L250.03 22.9064Z" stroke="white" stroke-linecap="round" stroke-linejoin="round"/>
<path d="M264.343 6.11185C264.343 8.94336 262.587 11.2345 260.427 11.2345C258.267 11.2345 256.511 8.94336 256.511 6.11185C256.511 3.28034 258.256 1 260.427 1C262.598 1 264.343 3.29115 264.343 6.11185Z" fill="#007BFF" stroke="white" stroke-linecap="round" stroke-linejoin="round"/>
<path d="M268.334 22.9064H252.031L252.946 15.7087C253.048 14.7877 253.479 13.9366 254.158 13.317C254.837 12.6974 255.716 12.3525 256.628 12.3477H263.737C264.645 12.3479 265.521 12.6837 266.203 13.2923C266.884 13.9009 267.324 14.7407 267.44 15.6547L268.334 22.9064Z" fill="#007BFF" stroke="white" stroke-linecap="round" stroke-linejoin="round"/>
<path d="M282.69 6.11185C282.69 8.94336 280.934 11.2345 278.774 11.2345C276.614 11.2345 274.858 8.94336 274.858 6.11185C274.858 3.28034 276.614 1 278.774 1C280.934 1 282.69 3.29115 282.69 6.11185Z" stroke="white" stroke-linecap="round" stroke-linejoin="round"/>
<path d="M286.723 22.9064H270.377L271.293 15.7087C271.407 14.7938 271.846 13.9527 272.528 13.3437C273.21 12.7346 274.088 12.3997 274.996 12.4017H282.105C283.013 12.3997 283.891 12.7346 284.573 13.3437C285.255 13.9527 285.694 14.7938 285.808 15.7087L286.723 22.9064Z" stroke="white" stroke-linecap="round" stroke-linejoin="round"/>
<path d="M301.047 6.11185C301.047 8.94336 299.291 11.2345 297.121 11.2345C294.95 11.2345 293.204 8.94336 293.204 6.11185C293.204 3.28034 294.96 1 297.121 1C299.281 1 301.047 3.29115 301.047 6.11185Z" stroke="white" stroke-linecap="round" stroke-linejoin="round"/>
<path d="M305.07 22.9064H288.724L289.639 15.7087C289.758 14.7956 290.198 13.9572 290.88 13.349C291.561 12.7409 292.436 12.4043 293.343 12.4017H300.451C301.36 12.4016 302.238 12.7371 302.921 13.3455C303.604 13.9539 304.047 14.7938 304.165 15.7087L305.07 22.9064Z" stroke="white" stroke-linecap="round" stroke-linejoin="round"/>
<path d="M319.415 6.11185C319.415 8.94336 317.659 11.2345 315.499 11.2345C313.339 11.2345 311.572 8.94336 311.572 6.11185C311.572 3.28034 313.328 1 315.499 1C317.67 1 319.415 3.29115 319.415 6.11185Z" stroke="white" stroke-linecap="round" stroke-linejoin="round"/>
<path d="M323.427 22.9064H307.071L307.986 15.7087C308.105 14.7956 308.545 13.9572 309.226 13.349C309.907 12.7409 310.782 12.4043 311.689 12.4017H318.809C319.716 12.4043 320.591 12.7409 321.272 13.349C321.953 13.9572 322.394 14.7956 322.512 15.7087L323.427 22.9064Z" stroke="white" stroke-linecap="round" stroke-linejoin="round"/>
<path d="M96.4682 34.9565C96.4682 35.2375 96.4682 35.5185 96.4682 35.7995C96.3588 41.3683 94.0896 46.6683 90.1538 50.5474C86.218 54.4266 80.9337 56.5716 75.4493 56.516C69.9649 56.4605 64.7237 54.209 60.8648 50.2509C57.006 46.2928 54.8413 40.9479 54.8413 35.378C54.8413 29.8081 57.006 24.4632 60.8648 20.5051C64.7237 16.547 69.9649 14.2955 75.4493 14.24C80.9337 14.1845 86.218 16.3294 90.1538 20.2086C94.0896 24.0878 96.3588 29.3877 96.4682 34.9565Z" fill="#007BFF" stroke="#263238" stroke-linecap="round" stroke-linejoin="round"/>
<path d="M75.5356 13.6986V36.1669H96.415C96.415 36.048 96.415 35.9292 96.415 35.7995C96.415 35.6698 96.415 35.2375 96.415 34.9565C96.415 29.3279 94.2169 23.929 90.3028 19.9439C86.3887 15.9589 81.0781 13.7129 75.5356 13.6986Z" fill="white" stroke="#263238" stroke-linecap="round" stroke-linejoin="round"/>
<path d="M124.478 8.8569C124.478 11.6776 122.722 13.9687 120.561 13.9687C118.401 13.9687 116.645 11.6776 116.645 8.8569C116.645 6.03619 118.391 3.73424 120.561 3.73424C122.732 3.73424 124.478 5.98216 124.478 8.8569Z" stroke="white" stroke-linecap="round" stroke-linejoin="round"/>
<path d="M128.511 25.5542H112.165L113.08 18.3565C113.192 17.4396 113.63 16.5959 114.313 15.9847C114.995 15.3735 115.874 15.037 116.784 15.0387H123.892C124.802 15.0393 125.679 15.3766 126.361 15.9874C127.043 16.5982 127.482 17.4405 127.596 18.3565L128.511 25.5542Z" stroke="white" stroke-linecap="round" stroke-linejoin="round"/>
<path d="M45.9193 50.1408C45.9193 52.9723 44.1634 55.2634 42.0031 55.2634C39.8428 55.2634 38.0869 52.9723 38.0869 50.1408C38.0869 47.3093 39.8322 45.0289 42.0031 45.0289C44.1741 45.0289 45.9193 47.3201 45.9193 50.1408Z" stroke="white" stroke-linecap="round" stroke-linejoin="round"/>
<path d="M49.9421 66.8813H33.5962L34.5114 59.6512C34.6398 58.748 35.0853 57.9224 35.7659 57.3266C36.4465 56.7307 37.3162 56.4048 38.2148 56.409H45.3235C46.2215 56.4071 47.09 56.7338 47.7702 57.3292C48.4503 57.9246 48.8964 58.7489 49.0269 59.6512L49.9421 66.8813Z" stroke="white" stroke-linecap="round" stroke-linejoin="round"/>
<path d="M92.1265 21.8797L97.2026 16.7246H111.229" stroke="white" stroke-linecap="round" stroke-linejoin="round"/>
<path d="M73.0349 56.4306V65.2278H54.2307" stroke="white" stroke-linecap="round" stroke-linejoin="round"/>
<path d="M460.548 257.695C460.548 257.695 461.42 248.844 457.93 244.856C454.439 240.868 449.214 245.742 450.481 251.059C451.747 256.376 460.548 257.695 460.548 257.695Z" fill="#007BFF"/>
<path d="M450.534 297.163C450.534 297.163 451.885 283.351 446.458 277.148C441.031 270.945 432.858 278.521 434.901 286.81C436.944 295.099 450.534 297.163 450.534 297.163Z" fill="#007BFF"/>
<path d="M447.586 319.523C447.586 319.523 446.096 305.733 439.509 300.805C432.922 295.877 426.494 305.031 430.176 312.693C433.858 320.356 447.586 319.523 447.586 319.523Z" fill="#007BFF"/>
<path d="M461.42 331.076C453.386 332.643 446.192 344.434 446.192 344.434C446.192 344.434 458.228 351.189 464.805 345.872C471.381 340.554 469.466 329.499 461.42 331.076Z" fill="#007BFF"/>
<path d="M464.081 351.848C452.588 354.096 442.297 370.966 442.297 370.966C442.297 370.966 459.505 380.628 468.902 373.03C478.298 365.433 475.574 349.6 464.081 351.848Z" fill="#007BFF"/>
<path d="M442.052 369.248C442.304 368.874 442.531 368.484 442.733 368.081C443.465 366.57 443.888 364.925 443.978 363.244C444.068 361.564 443.821 359.882 443.255 358.3C443.861 353.177 444.404 349.027 444.798 347.158C444.968 346.358 445.138 345.515 445.298 344.629H445.872C445.872 344.629 445.798 343.97 445.617 342.889C446.543 337.658 447.469 331.087 448.575 323.23C448.724 322.15 448.873 321.069 449.033 319.988C452.162 321.49 461.154 325.186 466.518 320.853C473.094 315.536 471.168 304.48 463.134 306.047C457.323 307.181 451.96 313.666 449.427 317.167C450.14 312.174 450.917 306.814 451.789 301.205C451.938 300.254 452.109 299.271 452.289 298.244C455.376 300.557 462.931 305.409 468.784 302.448C476.308 298.644 476.691 287.415 468.508 287.253C462.612 287.145 456.067 292.311 452.864 295.207C454.045 289.295 455.674 282.465 457.419 275.754C459.292 277.18 464.304 280.509 468.146 278.564C472.977 276.121 473.222 268.913 467.965 268.837C464.145 268.762 459.909 272.133 457.876 273.981C459.281 268.578 460.728 263.358 462.037 258.722C464.166 260.278 468.721 262.958 472.264 261.164C477.085 258.722 477.33 251.524 472.083 251.437C468.752 251.373 465.092 253.945 462.868 255.825C464.783 249.103 466.284 244.143 466.677 242.856C468.625 241.538 474.52 237.453 475.499 234.978C475.823 234.267 476.002 233.496 476.023 232.713C476.045 231.93 475.91 231.151 475.626 230.422C475.342 229.694 474.915 229.032 474.371 228.476C473.828 227.92 473.178 227.482 472.463 227.189C471.748 226.896 470.981 226.753 470.21 226.77C469.439 226.787 468.679 226.963 467.976 227.287C467.274 227.611 466.644 228.077 466.124 228.656C465.605 229.235 465.206 229.915 464.953 230.655C464.006 233.011 465.262 239.658 465.815 242.24L465.464 242.132C465.411 242.294 463.453 248.714 460.931 257.63L460.771 257.792L460.867 257.868C459.505 262.677 457.983 268.189 456.514 273.83C456.599 271.15 456.44 265.411 453.811 262.428C450.331 258.441 445.096 263.304 446.362 268.621C447.533 273.376 454.62 274.933 456.11 275.213C454.152 282.779 452.321 290.517 451.108 296.936L450.842 297.217L451.034 297.379C450.789 298.665 450.576 299.908 450.395 301.086C449.15 309.073 448.097 316.551 447.203 323.155C446.33 329.347 445.574 334.74 444.84 339.301C443.776 334.881 441.648 328.937 437.774 326.04C437.074 325.456 436.251 325.044 435.369 324.836C434.486 324.628 433.569 324.63 432.687 324.841C433.006 319.599 428.643 315.049 424.174 318.356C418.757 322.398 417.523 333.735 417.523 333.735C420.901 333.886 424.274 333.327 427.43 332.092C427.229 334.067 427.58 336.06 428.441 337.842C427.403 337.91 426.408 338.286 425.578 338.923C424.216 340.016 423.102 341.394 422.311 342.964C421.082 343.433 419.971 344.171 419.055 345.126C418.672 342.511 418.267 339.722 417.831 336.567C417.065 331.163 416.203 324.992 415.181 318.421C415.032 317.459 414.862 316.433 414.66 315.373L414.819 315.244L414.596 315.017C413.596 309.732 412.095 303.399 410.488 297.163C411.701 296.936 417.533 295.65 418.502 291.759C419.566 287.437 415.309 283.395 412.404 286.669C410.275 289.133 410.116 293.845 410.19 296.039C408.977 291.414 407.732 286.875 406.615 282.919L406.689 282.854L406.561 282.725C404.486 275.408 402.869 270.123 402.837 269.994L402.549 270.08C402.996 267.919 404.029 262.515 403.252 260.559C403.021 259.981 402.681 259.455 402.25 259.011C401.819 258.567 401.307 258.214 400.742 257.971C400.176 257.728 399.57 257.601 398.956 257.596C398.342 257.591 397.733 257.709 397.165 257.943C396.596 258.178 396.078 258.523 395.641 258.961C395.204 259.398 394.855 259.919 394.616 260.493C394.377 261.067 394.252 261.683 394.247 262.306C394.242 262.929 394.359 263.548 394.589 264.125C395.387 266.146 400.23 269.529 401.836 270.61C402.156 271.69 403.39 275.743 404.965 281.276C403.135 279.731 400.134 277.613 397.388 277.667C393.131 277.753 393.28 283.676 397.25 285.686C400.155 287.156 403.869 284.951 405.646 283.676C406.71 287.48 407.913 291.803 409.062 296.212C407.391 294.699 403.912 291.889 400.772 291.986C396.515 292.073 396.664 297.984 400.623 299.995C403.816 301.594 407.902 298.86 409.445 297.682C410.871 303.226 412.223 308.846 413.181 313.698C410.552 311.321 405.167 307.073 400.325 307.214C393.61 307.344 393.94 316.573 400.102 319.707C404.901 322.139 411.116 318.14 413.66 316.238C413.809 317.081 413.947 317.902 414.064 318.67C414.788 323.295 415.426 327.694 416.011 331.801C413.936 328.915 409.52 323.587 404.742 322.658C398.144 321.371 396.558 330.46 401.964 334.827C406.38 338.382 413.766 335.356 416.341 334.113C416.469 335.021 416.597 335.929 416.714 336.804C417.203 340.295 417.65 343.462 418.076 346.326C417.12 347.591 416.399 349.023 415.948 350.551C413.596 347.666 409.977 344.067 406.104 343.267C399.495 341.981 397.92 351.07 403.326 355.436C406.753 358.214 411.989 356.982 415.362 355.717C415.469 357.76 415.983 359.76 416.873 361.596C417.859 363.584 419.323 365.287 421.13 366.546C421.971 373.83 422.907 383.189 423.525 389.565H413.404V433H453.183V389.414H440.03C440.53 384.173 441.275 376.597 442.052 369.248ZM443.925 344.618C443.776 345.407 443.627 346.153 443.478 346.866C443.127 348.519 442.669 351.859 442.158 356.052C441.555 355.049 440.725 354.206 439.736 353.593C438.748 352.98 437.63 352.616 436.476 352.529C435.653 350.868 434.676 349.29 433.56 347.817C434.162 346.174 434.259 344.384 433.836 342.683C437.051 343.962 440.473 344.618 443.925 344.618ZM422.428 367.216C422.911 367.511 423.4 367.782 423.897 368.027C423.503 369.442 423.195 370.782 422.95 371.95C422.78 370.318 422.641 368.74 422.428 367.216ZM423.397 376.132C426.526 376.132 435.369 375.786 440.328 371.247H440.456C439.753 377.969 439.104 384.659 438.647 389.414H424.77C424.365 385.686 423.897 380.92 423.397 376.132Z" fill="#B2D8FF"/>
<path d="M415.128 277.353C416.192 273.03 411.936 268.978 409.03 272.263C406.125 275.549 406.902 282.811 406.902 282.811C406.902 282.811 414.053 281.719 415.128 277.353Z" fill="#007BFF"/>
<path d="M415.117 315.244C415.117 315.244 426.291 313.547 427.962 306.738C429.633 299.93 422.939 293.694 418.47 298.795C414 303.896 415.117 315.244 415.117 315.244Z" fill="#007BFF"/>
<path d="M403.975 360.191C394.536 358.343 392.269 371.355 400.006 377.602C407.743 383.848 421.886 375.905 421.886 375.905C421.886 375.905 413.425 362.039 403.975 360.191Z" fill="#007BFF"/>
<path d="M429.846 76.9753H105.716C100.133 76.9753 95.6062 81.5719 95.6062 87.2422V346.823C95.6062 352.493 100.133 357.09 105.716 357.09H429.846C435.429 357.09 439.956 352.493 439.956 346.823V87.2422C439.956 81.5719 435.429 76.9753 429.846 76.9753Z" fill="#263238" stroke="#263238" stroke-linecap="round" stroke-linejoin="round"/>
<path d="M309.848 157.133H206.633V432.849H309.848V157.133Z" fill="#B0B0B0" stroke="#263238" stroke-linecap="round" stroke-linejoin="round"/>
<path d="M309.848 153.61H206.633V369.421H309.848V153.61Z" fill="#263238" stroke="#263238" stroke-linecap="round" stroke-linejoin="round"/>
<path d="M338.475 422.279H178.006V432.849H338.475V422.279Z" fill="#B0B0B0" stroke="#263238" stroke-linecap="round" stroke-linejoin="round"/>
<path d="M421.173 76.9753H95.3083C89.7248 76.9753 85.1985 81.5719 85.1985 87.2422V346.823C85.1985 352.493 89.7248 357.09 95.3083 357.09H421.173C426.756 357.09 431.283 352.493 431.283 346.823V87.2422C431.283 81.5719 426.756 76.9753 421.173 76.9753Z" fill="#B0B0B0" stroke="#263238" stroke-linecap="round" stroke-linejoin="round"/>
<path d="M419.587 86.4533H96.9045V347.633H419.587V86.4533Z" fill="white" stroke="#263238" stroke-miterlimit="10"/>
<path d="M419.587 335.075H96.9045V347.622H419.587V335.075Z" fill="#707070" stroke="#263238" stroke-linecap="round" stroke-linejoin="round"/>
<path d="M419.587 86.4533H96.9045V104.696H419.587V86.4533Z" fill="#007BFF" stroke="#263238" stroke-linecap="round" stroke-linejoin="round"/>
<path d="M372.88 432.849H477" stroke="#263238" stroke-linecap="round" stroke-linejoin="round"/>
<path d="M1 432.849H368.73" stroke="#263238" stroke-linecap="round" stroke-linejoin="round"/>
<path d="M61.1265 432.849H22.3795C22.3795 432.849 22.2412 431.541 22.1347 429.542C21.858 424.689 21.741 415.827 24.1673 412.412C27.5834 407.592 43.461 416.173 43.461 416.173C43.461 416.173 50.7081 422.874 54.7521 424.635C58.796 426.397 59.9559 425.208 60.5412 428.158C60.637 428.655 60.7221 429.12 60.7966 429.542C60.9839 430.635 61.0942 431.74 61.1265 432.849Z" fill="white" stroke="#263238" stroke-miterlimit="10"/>
<path d="M61.1266 432.849H22.3795C22.3795 432.849 22.2412 431.541 22.1348 429.542H60.8179C60.9981 430.635 61.1012 431.74 61.1266 432.849Z" fill="white" stroke="#263238" stroke-miterlimit="10"/>
<path d="M26.0085 270.264L28.3604 331.865C28.3604 331.865 20.9111 348.973 22.9756 362.31C25.0401 375.646 22.3052 419.08 22.3052 419.08C22.3052 419.08 22.9756 421.134 31.0528 421.134C39.13 421.134 40.4815 415.319 40.4815 415.319C40.4815 415.319 47.2178 337.345 47.9308 331.53C48.6438 325.716 56.3485 272.025 56.3485 272.025L26.0085 270.264Z" fill="#263238" stroke="#263238" stroke-miterlimit="10"/>
<path d="M71.5665 432.849H32.8194C32.8194 432.849 32.6811 431.541 32.5747 429.542C32.298 424.689 32.1809 415.827 34.6073 412.412C38.0233 407.592 53.901 416.173 53.901 416.173C53.901 416.173 61.1481 422.874 65.192 424.635C69.2359 426.397 70.3959 425.208 70.9812 428.158C71.077 428.655 71.1621 429.12 71.2366 429.542C71.4239 430.635 71.5341 431.74 71.5665 432.849Z" fill="white" stroke="#263238" stroke-miterlimit="10"/>
<path d="M71.5663 432.849H32.8192C32.8192 432.849 32.6809 431.541 32.5745 429.542H71.2364C71.4236 430.635 71.5339 431.74 71.5663 432.849Z" fill="white" stroke="#263238" stroke-miterlimit="10"/>
<path d="M58.9236 268.318C58.9236 268.318 62.4035 292.494 61.2436 303.658C60.0836 314.822 58.349 353.61 56.0397 369.432C53.7304 385.253 52.049 410.067 52.049 410.067L53.9007 411.472V416.173C53.9007 416.173 46.0363 418.054 42.8012 418.518C40.609 418.842 36.4799 419.275 34.0217 419.523C33.7951 419.545 33.5665 419.513 33.3545 419.429C33.1426 419.344 32.9532 419.21 32.8018 419.038C32.6505 418.865 32.5413 418.658 32.4833 418.435C32.4253 418.211 32.42 417.977 32.468 417.751L33.5322 412.412L34.7453 406.036C34.7453 406.036 28.2751 365.314 29.4244 358.268C30.5737 351.221 34.6283 334.783 34.6283 333.022C34.6283 331.26 28.8923 300.719 27.711 295.434C26.5298 290.149 21.9219 276.056 21.9219 268.416C21.9219 260.775 58.9236 268.318 58.9236 268.318Z" fill="#263238" stroke="#263238" stroke-miterlimit="10"/>
<path d="M50.8359 188.258C50.8359 188.258 59.2217 200.297 61.8183 202.653C64.415 205.009 72.8114 209.7 72.5241 213.515C72.2367 217.33 71.3641 221.739 66.7349 223.792C62.1057 225.846 52.3045 219.091 52.3045 219.091L50.8359 188.258Z" fill="white" stroke="#263238" stroke-miterlimit="10"/>
<path d="M63.5634 203.529C63.5634 203.529 60.6688 211.169 60.3709 214.098C60.0729 217.027 59.7856 222.031 62.1055 224.084C64.3297 225.93 67.0459 227.059 69.906 227.326C71.6406 227.326 72.2259 215.579 72.5132 213.525C72.8006 211.472 74.5352 207.041 72.8006 205.009C71.0659 202.978 65.8727 202.653 63.5634 203.529Z" fill="white" stroke="#263238" stroke-miterlimit="10"/>
<path d="M69.6932 176.921C67.6606 177.786 65.4364 176.078 64.2232 174.219C63.0101 172.36 62.0949 170.102 60.1474 169.021C59.5408 168.675 58.8172 168.427 58.5192 167.789C58.0084 166.708 59.2535 165.519 60.4241 165.509C61.5947 165.498 65.032 168.319 66.1494 168.751C69.9805 170.048 71.7471 165.671 75.7271 165.919C76.2081 165.902 76.6808 166.05 77.068 166.341C77.483 166.73 77.7384 170.869 77.8023 171.442C78.5153 178.575 77.6533 182.411 77.6746 195.953C77.6746 201.162 77.9406 210.002 77.8981 218.313C77.8981 221.696 77.5256 223.576 72.6729 226.289C67.8202 229.002 63.34 220.712 63.1697 218.432C62.9143 214.92 64.4361 210.77 65.1704 207.387C66.8305 199.962 69.5655 184.486 69.6932 176.921Z" fill="white" stroke="#263238" stroke-miterlimit="10"/>
<path d="M67.7139 164.979C67.7139 164.979 67.5117 164.655 67.1818 164.223C66.4475 163.239 65.0534 161.618 63.9892 161.672C62.4462 161.748 57.7105 165.055 58.8173 166.481C59.924 167.908 63.8722 164.774 63.8722 164.774L66.4156 169.518L70.3105 168.956L67.7139 164.979Z" fill="white" stroke="#263238" stroke-miterlimit="10"/>
<path d="M68.3525 164.482C68.3525 164.482 66.0113 165.563 66.2241 169.529C66.437 173.495 68.2461 174.014 69.0123 173.571C70.7849 173.038 72.5961 172.648 74.429 172.404C74.8137 172.338 75.1696 172.156 75.4491 171.879C75.7286 171.603 75.9185 171.247 75.9934 170.858C76.1636 169.994 76.4829 168.578 77.0575 166.298C78.4942 161.24 68.3525 164.482 68.3525 164.482Z" fill="white" stroke="#263238" stroke-miterlimit="10"/>
<path d="M70.0338 164.255C69.4519 165.628 69.1438 167.105 69.1274 168.601C69.111 170.096 69.3865 171.579 69.938 172.966" stroke="#263238" stroke-miterlimit="10"/>
<path d="M73.6414 163.607C73.6414 163.607 71.8003 169.075 73.2051 172.479" stroke="#263238" stroke-miterlimit="10"/>
<path d="M71.0767 175.051C71.0767 175.051 71.2044 175.668 72.9496 176.705C74.6949 177.743 76.6104 176.327 76.9616 176.251" stroke="#263238" stroke-miterlimit="10"/>
<path d="M35.4479 157.425L34.6816 171.885L49.9846 181.612L54.3159 162.288L42.0777 135.27C42.0777 135.27 38.6723 133.206 35.948 139.139C33.2237 145.072 36.1715 150.973 36.1715 150.973L35.4479 157.425Z" fill="white" stroke="#263238" stroke-miterlimit="10"/>
<path d="M61.5524 132.568L66.0007 144.294L62.9997 146.38C62.9997 146.38 65.7985 159.219 64.0639 161.802C62.3292 164.385 51.7725 163.769 50.1762 163.401C48.5799 163.034 41.386 140.987 41.386 140.987C41.386 140.987 40.9497 137.572 38.3531 140.555C35.7565 143.537 40.8752 149.535 40.8752 149.535L35.4372 157.425C35.4372 157.425 19.7086 144.316 20.379 136.804C21.0494 129.293 28.8393 119.588 45.4087 116.768C61.978 113.947 68.2674 126.656 66.6392 129.542C66.0847 130.416 65.3353 131.146 64.4516 131.672C63.5678 132.198 62.5747 132.505 61.5524 132.568Z" fill="#263238" stroke="#263238" stroke-miterlimit="10"/>
<path d="M61.1905 151.178C59.275 151.686 59.3814 155.977 59.3814 155.977C60.2971 156.264 61.2847 156.203 62.159 155.804C62.9421 155.426 63.6781 154.954 64.3512 154.399C64.1916 153.026 63.9787 151.654 63.7659 150.432C62.9465 150.692 61.9887 150.962 61.1905 151.178Z" fill="white" stroke="#263238" stroke-miterlimit="10"/>
<path d="M49.2822 137.053C48.7607 139.096 43.5781 141.084 43.5781 141.084L44.9084 144.099C44.9084 144.099 49.1651 153.75 50.9636 155.458C52.762 157.165 55.2948 156.387 54.6031 155.62C53.9114 154.853 55.2203 151.297 58.2213 149.276C59.7309 148.247 61.3704 147.429 63.0953 146.844C63.0953 146.553 62.9995 146.38 62.9995 146.38L66.0005 144.294L61.5522 132.568L49.6972 130.709C49.7643 132.833 49.6252 134.957 49.2822 137.053Z" fill="white" stroke="#263238" stroke-miterlimit="10"/>
<path d="M59.7539 139.776C59.9348 140.944 59.7539 141.938 59.2643 142.024C58.7748 142.111 58.3279 141.192 58.2002 140.025C58.0724 138.858 58.2002 137.864 58.6897 137.777C59.1792 137.691 59.5623 138.598 59.7539 139.776Z" fill="#263238"/>
<path d="M59.6793 135.097C59.6793 135.097 57.9341 133.454 56.5613 134.967C56.1745 135.3 55.9133 135.759 55.8221 136.265C55.731 136.772 55.8154 137.294 56.0611 137.745" stroke="#263238" stroke-width="0.75" stroke-linecap="round" stroke-linejoin="round"/>
<path d="M35.916 167.378C35.916 167.378 24.508 178.467 22.5073 184.519C20.5066 190.571 17.8887 243.267 18.9423 252.14C19.9958 261.013 21.1451 271.874 21.1451 271.874C21.1451 271.874 24.0823 275.289 31.0208 275.797C60.4987 278.056 58.977 268.308 58.977 268.308C58.977 268.308 58.8067 205.755 57.8276 198.525C56.8486 191.295 48.4734 177.353 44.7275 173.895C41.9759 171.475 39.0283 169.295 35.916 167.378Z" fill="white" stroke="#263238" stroke-miterlimit="10"/>
<path d="M49.6545 184.378L56.2419 196.342C56.2419 196.342 59.0087 193.175 57.9658 190.711C56.9229 188.247 49.6545 184.378 49.6545 184.378Z" fill="#007BFF" stroke="#263238" stroke-linecap="round" stroke-linejoin="round"/>
<path d="M56.242 196.342L53.7092 250.93L59.1898 262.591L62.7867 248.325L57.6254 195.283L56.242 196.342Z" fill="#007BFF" stroke="#263238" stroke-linecap="round" stroke-linejoin="round"/>
<path d="M32.9469 162.601L54.8159 182.022L54.1348 188.669L30.5205 171.053L32.9469 162.601Z" fill="white" stroke="#263238" stroke-miterlimit="10"/>
<path d="M29.499 236.426L56.4868 283.07C56.4868 283.07 60.5413 293.499 61.531 293.78C62.5207 294.061 68.4163 294.775 68.4163 294.775L71.3961 295.964C71.3961 295.964 73.3861 296.861 73.6521 295.52C73.9182 294.18 71.9601 284.032 70.9704 283.751C69.9807 283.47 63.2018 280.509 63.2018 280.509L44.3231 230.406L29.499 236.426Z" fill="white" stroke="#263238" stroke-miterlimit="10"/>
<path d="M31.4571 183.784C31.4571 183.784 23.8694 188.766 23.614 197.379C23.3926 203.279 24.2107 209.172 26.0297 214.779C26.7747 216.735 24.327 220.183 26.4022 223.025C28.4774 225.867 30.5206 234.729 30.5206 234.729L43.791 231.801C43.791 231.801 41.2263 225.64 42.7268 223.922C44.2273 222.204 46.1642 220.777 45.9832 216.822C45.7794 213.586 46.0702 210.338 46.8452 207.192C47.4199 205.55 47.6966 183.016 31.4571 183.784Z" fill="white" stroke="#263238" stroke-miterlimit="10"/>
<path d="M27.094 230.936L29.6693 237.42L45.7705 233.649L44.0997 225.457C44.0997 225.457 30.2014 227.813 27.094 230.936Z" fill="white" stroke="#263238" stroke-miterlimit="10"/>
<path d="M408.903 178.413H276.603V328.569H408.903V178.413Z" fill="#263238" stroke="#263238" stroke-linecap="round" stroke-linejoin="round"/>
<path d="M405.678 171.301H271.293V324.83H405.678V171.301Z" fill="white" stroke="#263238" stroke-linecap="round" stroke-linejoin="round"/>
<path d="M405.678 171.301H301.516V324.83H405.678V171.301Z" fill="white" stroke="#263238" stroke-linecap="round" stroke-linejoin="round"/>
<path d="M405.678 171.301H271.293V181.644H405.678V171.301Z" fill="#263238" stroke="#263238" stroke-miterlimit="10"/>
<path d="M333.729 186.875H307.315V219.588H333.729V186.875Z" fill="#007BFF" stroke="#263238" stroke-miterlimit="10"/>
<path d="M312.573 196.731C312.573 196.731 313.158 205.647 311.987 206.241C311.335 206.592 310.591 206.728 309.859 206.63C310.678 208.267 312.066 209.538 313.754 210.197C316.489 211.191 318.628 208.619 318.628 208.619L315.701 196.331L312.573 196.731Z" fill="#263238" stroke="#263238" stroke-linecap="round" stroke-linejoin="round"/>
<path d="M307.315 219.588L311.264 211.061L322.81 209.289L330.877 213.493L333.729 219.588H307.315Z" fill="white" stroke="#263238" stroke-linecap="round" stroke-linejoin="round"/>
<path d="M313.435 211.018L315.137 217.168L324.204 210.834L320.958 208.219L313.435 211.018Z" fill="white" stroke="#263238" stroke-linecap="round" stroke-linejoin="round"/>
<path d="M323.47 205.312L322.81 209.289L315.84 214.379L314.967 209.516L323.47 205.312Z" fill="white" stroke="#263238" stroke-linecap="round" stroke-linejoin="round"/>
<path d="M312.743 199.065C312.743 199.065 312.339 208.295 315.297 209.927C318.255 211.559 324.343 206.036 325.024 205.344C325.705 204.653 329.344 203.712 329.344 200.686C329.344 197.66 327.078 198.374 327.078 198.374C327.078 198.374 328.44 194.418 327.759 192.786C327.078 191.154 317.638 190.625 314.68 192.451C311.721 194.278 312.743 199.065 312.743 199.065Z" fill="white" stroke="#263238" stroke-linecap="round" stroke-linejoin="round"/>
<path d="M321.937 196.731C321.493 197.215 321.246 197.852 321.246 198.514C321.246 199.176 321.493 199.813 321.937 200.297C323.153 202.089 323.641 204.288 323.3 206.436C323.108 207.819 320.958 208.219 320.958 208.219C320.958 208.219 321.544 209.408 324.077 210.197C326.609 210.986 330.643 210.499 332.005 206.544C333.367 202.588 330.121 194.353 328.961 192.181C327.801 190.009 320.958 188.215 316.478 189.209C311.998 190.203 310.231 192.97 310.625 194.753C311.019 196.536 312.179 197.52 315.105 197.52C317.4 197.443 319.685 197.179 321.937 196.731Z" fill="#263238" stroke="#263238" stroke-linecap="round" stroke-linejoin="round"/>
<path d="M313.786 199.13C314.11 198.993 314.466 198.951 314.813 199.011C315.159 199.07 315.482 199.227 315.744 199.465" stroke="#263238" stroke-linecap="round" stroke-linejoin="round"/>
<path d="M315.84 201.108L315.212 204.22L317.17 204.004" stroke="#263238" stroke-linecap="round" stroke-linejoin="round"/>
<path d="M319.171 201.475C319.171 201.929 318.958 202.297 318.692 202.297C318.426 202.297 318.224 201.929 318.224 201.475C318.224 201.021 318.436 200.654 318.692 200.654C318.947 200.654 319.171 201.021 319.171 201.475Z" fill="#263238"/>
<path d="M315.095 201.086C315.095 201.54 314.893 201.908 314.627 201.908C314.361 201.908 314.158 201.54 314.158 201.086C314.158 200.632 314.361 200.276 314.627 200.276C314.893 200.276 315.095 200.643 315.095 201.086Z" fill="#263238"/>
<path d="M317.745 199.508C318.625 199.356 319.529 199.525 320.299 199.984" stroke="#263238" stroke-linecap="round" stroke-linejoin="round"/>
<path d="M315.159 206.717C315.839 206.874 316.544 206.886 317.229 206.752C317.914 206.618 318.564 206.341 319.139 205.939" stroke="#263238" stroke-linecap="round" stroke-linejoin="round"/>
<path d="M399.804 186.648H340.167V198.59H399.804V186.648Z" fill="white" stroke="#263238" stroke-linecap="round" stroke-linejoin="round"/>
<path d="M350.298 187.858L351.245 190.83H354.321L351.831 192.657L352.788 195.618L350.298 193.791L347.819 195.618L348.766 192.657L346.286 190.83H349.351L350.298 187.858Z" fill="#007BFF"/>
<path d="M360.982 187.858L361.93 190.83H365.005L362.515 192.657L363.462 195.618L360.982 193.791L358.503 195.618L359.45 192.657L356.97 190.83H360.035L360.982 187.858Z" fill="#007BFF"/>
<path d="M371.667 187.858L372.625 190.83H375.69L373.21 192.657L374.157 195.618L371.667 193.791L369.187 195.618L370.135 192.657L367.655 190.83H370.72L371.667 187.858Z" fill="#007BFF"/>
<path d="M382.351 187.858L383.309 190.83H386.374L383.894 192.657L384.842 195.618L382.351 193.791L379.872 195.618L380.819 192.657L378.339 190.83H381.404L382.351 187.858Z" fill="#DBDBDB"/>
<path d="M393.047 187.858L393.994 190.83H397.059L394.579 192.657L395.526 195.618L393.047 193.791L390.556 195.618L391.503 192.657L389.024 190.83H392.099L393.047 187.858Z" fill="#DBDBDB"/>
<path d="M399.804 204.566H340.167V271.096H399.804V204.566Z" fill="white" stroke="#263238" stroke-linecap="round" stroke-linejoin="round"/>
<path d="M399.804 276.208H340.167V320.561H399.804V276.208Z" fill="white" stroke="#263238" stroke-linecap="round" stroke-linejoin="round"/>
<path d="M308.369 227.878H331.558" stroke="#263238" stroke-linecap="round" stroke-linejoin="round"/>
<path d="M308.369 255.166H331.558" stroke="#263238" stroke-linecap="round" stroke-linejoin="round"/>
<path d="M273.826 226.71H297.004" stroke="#263238" stroke-linecap="round" stroke-linejoin="round"/>
<path d="M273.826 199.811H297.004" stroke="#263238" stroke-linecap="round" stroke-linejoin="round"/>
<path d="M273.826 190.463H297.004" stroke="#263238" stroke-linecap="round" stroke-linejoin="round"/>
<path d="M308.369 263.131H331.558" stroke="#263238" stroke-linecap="round" stroke-linejoin="round"/>
<path d="M308.369 271.096H331.558" stroke="#263238" stroke-linecap="round" stroke-linejoin="round"/>
<path d="M308.369 279.05H331.558" stroke="#263238" stroke-linecap="round" stroke-linejoin="round"/>
<path d="M308.369 287.015H331.558" stroke="#263238" stroke-linecap="round" stroke-linejoin="round"/>
<path d="M308.369 294.98H331.558" stroke="#263238" stroke-linecap="round" stroke-linejoin="round"/>
<path d="M308.369 302.934H331.558" stroke="#263238" stroke-linecap="round" stroke-linejoin="round"/>
<path d="M308.369 310.899H331.558" stroke="#263238" stroke-linecap="round" stroke-linejoin="round"/>
<path d="M308.369 231.087H323.715" stroke="#263238" stroke-linecap="round" stroke-linejoin="round"/>
<path d="M340.167 239.247H302.091V249.481H340.167V239.247Z" fill="#007BFF" stroke="#263238" stroke-linecap="round" stroke-linejoin="round"/>
<path d="M301.707 207.409H271.857V217.643H301.707V207.409Z" fill="#007BFF" stroke="#263238" stroke-linecap="round" stroke-linejoin="round"/>
<path d="M344.083 210.251H373.199" stroke="#263238" stroke-linecap="round" stroke-linejoin="round"/>
<path d="M344.083 285.308H373.199" stroke="#263238" stroke-linecap="round" stroke-linejoin="round"/>
<path d="M344.083 221.62H360.323" stroke="#263238" stroke-linecap="round" stroke-linejoin="round"/>
<path d="M344.083 229.585H360.323" stroke="#263238" stroke-linecap="round" stroke-linejoin="round"/>
<path d="M344.083 237.539H360.323" stroke="#263238" stroke-linecap="round" stroke-linejoin="round"/>
<path d="M344.083 245.504H360.323" stroke="#263238" stroke-linecap="round" stroke-linejoin="round"/>
<path d="M344.083 253.469H360.323" stroke="#263238" stroke-linecap="round" stroke-linejoin="round"/>
<path d="M344.083 261.423H360.323" stroke="#263238" stroke-linecap="round" stroke-linejoin="round"/>
<path d="M367.602 221.62H383.841" stroke="#263238" stroke-linecap="round" stroke-linejoin="round"/>
<path d="M367.602 229.585H383.841" stroke="#263238" stroke-linecap="round" stroke-linejoin="round"/>
<path d="M367.602 237.539H383.841" stroke="#263238" stroke-linecap="round" stroke-linejoin="round"/>
<path d="M367.602 245.504H383.841" stroke="#263238" stroke-linecap="round" stroke-linejoin="round"/>
<path d="M367.602 253.469H383.841" stroke="#263238" stroke-linecap="round" stroke-linejoin="round"/>
<path d="M367.602 261.423H383.841" stroke="#263238" stroke-linecap="round" stroke-linejoin="round"/>
<path d="M344.083 213.655H385.523" stroke="#263238" stroke-linecap="round" stroke-linejoin="round"/>
<path d="M399.517 290.992H340.167V294.407H399.517V290.992Z" fill="#263238" stroke="#263238" stroke-linecap="round" stroke-linejoin="round"/>
<path d="M292.566 173.852V178.975" stroke="white" stroke-linecap="round" stroke-linejoin="round"/>
<path d="M324.108 173.852V178.975" stroke="white" stroke-linecap="round" stroke-linejoin="round"/>
<path d="M355.662 173.852V178.975" stroke="white" stroke-linecap="round" stroke-linejoin="round"/>
<path d="M387.204 173.852V178.975" stroke="white" stroke-linecap="round" stroke-linejoin="round"/>
<path d="M247.912 132.244H115.613V282.4H247.912V132.244Z" fill="#263238" stroke="#263238" stroke-linecap="round" stroke-linejoin="round"/>
<path d="M244.624 124.657H110.239V278.186H244.624V124.657Z" fill="white" stroke="#263238" stroke-linecap="round" stroke-linejoin="round"/>
<path d="M244.624 124.657H140.462V278.186H244.624V124.657Z" fill="white" stroke="#263238" stroke-linecap="round" stroke-linejoin="round"/>
<path d="M244.624 124.657H110.239V135H244.624V124.657Z" fill="#263238" stroke="#263238" stroke-miterlimit="10"/>
<path d="M172.675 140.241H146.261V172.955H172.675V140.241Z" fill="#007BFF" stroke="#263238" stroke-miterlimit="10"/>
<path d="M146.261 172.955L150.21 164.428L161.756 162.656L169.823 166.86L172.675 172.955H146.261Z" fill="white" stroke="#263238" stroke-linecap="round" stroke-linejoin="round"/>
<path d="M152.381 164.385L154.083 170.523L163.15 164.19L159.904 161.586L152.381 164.385Z" fill="white" stroke="#263238" stroke-linecap="round" stroke-linejoin="round"/>
<path d="M162.416 158.678L161.756 162.656L154.786 167.746L153.913 162.882L162.416 158.678Z" fill="#A1A1A1" stroke="#263238" stroke-linecap="round" stroke-linejoin="round"/>
<path d="M151.721 151.589C151.218 150.909 150.874 150.122 150.713 149.287C150.553 148.452 150.581 147.591 150.795 146.769C151.593 144.089 155.286 141.938 160.298 141.938C162.23 141.835 164.133 142.443 165.66 143.65C167.186 144.857 168.233 146.582 168.609 148.509C169.397 151.859 166.236 156.549 165.31 156.809C164.385 157.068 163.991 157.619 163.182 157.079C162.373 156.539 162.118 149.309 160.277 148.909C158.436 148.509 153.551 149.179 153.551 149.179L151.721 151.589Z" fill="#263238"/>
<path d="M151.689 152.41C151.689 152.41 151.284 161.64 154.243 163.218C157.201 164.795 163.288 159.338 163.97 158.635C164.651 157.933 166.758 158.052 166.758 155.026C166.758 152 163.725 153.415 163.725 153.415C163.725 153.415 161.714 152.734 161.479 151.816C161.245 150.897 162.756 149.568 162.405 148.736C161.724 147.104 157.191 144.726 154.232 146.574C151.274 148.422 151.689 152.41 151.689 152.41Z" fill="#A1A1A1" stroke="#263238" stroke-linecap="round" stroke-linejoin="round"/>
<path d="M152.732 152.497C153.055 152.359 153.41 152.317 153.756 152.374C154.103 152.431 154.426 152.586 154.69 152.821" stroke="#263238" stroke-linecap="round" stroke-linejoin="round"/>
<path d="M154.786 154.474L154.158 157.587L156.126 157.36" stroke="#263238" stroke-linecap="round" stroke-linejoin="round"/>
<path d="M158.117 154.842C158.117 155.296 157.904 155.652 157.638 155.652C157.372 155.652 157.169 155.296 157.169 154.842C157.169 154.388 157.382 154.021 157.638 154.021C157.893 154.021 158.117 154.388 158.117 154.842Z" fill="#263238"/>
<path d="M154.041 154.453C154.041 154.907 153.839 155.274 153.572 155.274C153.306 155.274 153.104 154.907 153.104 154.453C153.104 153.999 153.306 153.642 153.572 153.642C153.839 153.642 154.041 153.999 154.041 154.453Z" fill="#263238"/>
<path d="M156.691 152.875C157.571 152.723 158.475 152.891 159.245 153.35" stroke="#263238" stroke-linecap="round" stroke-linejoin="round"/>
<path d="M154.136 160.073C154.136 160.073 156.605 160.656 158.117 159.305" stroke="#263238" stroke-linecap="round" stroke-linejoin="round"/>
<path d="M238.75 140.014H179.113V151.956H238.75V140.014Z" fill="white" stroke="#263238" stroke-linecap="round" stroke-linejoin="round"/>
<path d="M186.105 141.83L187.052 144.791H190.117L187.637 146.628L188.584 149.59L186.105 147.752L183.625 149.59L184.572 146.628L182.093 144.791H185.158L186.105 141.83Z" fill="#007BFF"/>
<path d="M196.789 141.83L197.736 144.791H200.801L198.322 146.628L199.269 149.59L196.789 147.752L194.31 149.59L195.257 146.628L192.777 144.791H195.842L196.789 141.83Z" fill="#919191"/>
<path d="M207.474 141.83L208.421 144.791H211.486L209.006 146.628L209.953 149.59L207.474 147.752L204.994 149.59L205.941 146.628L203.462 144.791H206.527L207.474 141.83Z" fill="#919191"/>
<path d="M218.158 141.83L219.105 144.791H222.17L219.69 146.628L220.638 149.59L218.158 147.752L215.678 149.59L216.626 146.628L214.146 144.791H217.211L218.158 141.83Z" fill="#919191"/>
<path d="M228.843 141.83L229.79 144.791H232.855L230.375 146.628L231.322 149.59L228.843 147.752L226.363 149.59L227.31 146.628L224.831 144.791H227.895L228.843 141.83Z" fill="#919191"/>
<path d="M238.75 157.922H179.113V224.452H238.75V157.922Z" fill="white" stroke="#263238" stroke-linecap="round" stroke-linejoin="round"/>
<path d="M238.75 229.574H179.113V273.927H238.75V229.574Z" fill="white" stroke="#263238" stroke-linecap="round" stroke-linejoin="round"/>
<path d="M147.315 181.244H170.504" stroke="#263238" stroke-linecap="round" stroke-linejoin="round"/>
<path d="M147.315 208.532H170.504" stroke="#263238" stroke-linecap="round" stroke-linejoin="round"/>
<path d="M112.771 180.077H135.949" stroke="#263238" stroke-linecap="round" stroke-linejoin="round"/>
<path d="M112.771 153.178H135.949" stroke="#263238" stroke-linecap="round" stroke-linejoin="round"/>
<path d="M112.771 143.818H135.949" stroke="#263238" stroke-linecap="round" stroke-linejoin="round"/>
<path d="M147.315 216.497H170.504" stroke="#263238" stroke-linecap="round" stroke-linejoin="round"/>
<path d="M147.315 224.452H170.504" stroke="#263238" stroke-linecap="round" stroke-linejoin="round"/>
<path d="M147.315 232.417H170.504" stroke="#263238" stroke-linecap="round" stroke-linejoin="round"/>
<path d="M147.315 240.382H170.504" stroke="#263238" stroke-linecap="round" stroke-linejoin="round"/>
<path d="M147.315 248.336H170.504" stroke="#263238" stroke-linecap="round" stroke-linejoin="round"/>
<path d="M147.315 256.301H170.504" stroke="#263238" stroke-linecap="round" stroke-linejoin="round"/>
<path d="M147.315 264.266H170.504" stroke="#263238" stroke-linecap="round" stroke-linejoin="round"/>
<path d="M147.315 184.454H162.661" stroke="#263238" stroke-linecap="round" stroke-linejoin="round"/>
<path d="M179.113 192.613H141.036V202.848H179.113V192.613Z" fill="#007BFF" stroke="#263238" stroke-linecap="round" stroke-linejoin="round"/>
<path d="M140.653 160.764H110.803V170.999H140.653V160.764Z" fill="#007BFF" stroke="#263238" stroke-linecap="round" stroke-linejoin="round"/>
<path d="M183.029 163.607H212.145" stroke="#263238" stroke-linecap="round" stroke-linejoin="round"/>
<path d="M183.029 238.674H212.145" stroke="#263238" stroke-linecap="round" stroke-linejoin="round"/>
<path d="M183.029 174.987H199.269" stroke="#263238" stroke-linecap="round" stroke-linejoin="round"/>
<path d="M183.029 182.941H199.269" stroke="#263238" stroke-linecap="round" stroke-linejoin="round"/>
<path d="M183.029 190.906H199.269" stroke="#263238" stroke-linecap="round" stroke-linejoin="round"/>
<path d="M183.029 198.871H199.269" stroke="#263238" stroke-linecap="round" stroke-linejoin="round"/>
<path d="M183.029 206.825H199.269" stroke="#263238" stroke-linecap="round" stroke-linejoin="round"/>
<path d="M183.029 214.79H199.269" stroke="#263238" stroke-linecap="round" stroke-linejoin="round"/>
<path d="M206.548 174.987H222.787" stroke="#263238" stroke-linecap="round" stroke-linejoin="round"/>
<path d="M206.548 182.941H222.787" stroke="#263238" stroke-linecap="round" stroke-linejoin="round"/>
<path d="M206.548 190.906H222.787" stroke="#263238" stroke-linecap="round" stroke-linejoin="round"/>
<path d="M206.548 198.871H222.787" stroke="#263238" stroke-linecap="round" stroke-linejoin="round"/>
<path d="M206.548 206.825H222.787" stroke="#263238" stroke-linecap="round" stroke-linejoin="round"/>
<path d="M206.548 214.79H222.787" stroke="#263238" stroke-linecap="round" stroke-linejoin="round"/>
<path d="M183.029 167.022H224.468" stroke="#263238" stroke-linecap="round" stroke-linejoin="round"/>
<path d="M238.462 244.359H179.113V247.774H238.462V244.359Z" fill="#263238" stroke="#263238" stroke-linecap="round" stroke-linejoin="round"/>
<path d="M131.512 127.218V132.341" stroke="white" stroke-linecap="round" stroke-linejoin="round"/>
<path d="M163.054 127.218V132.341" stroke="white" stroke-linecap="round" stroke-linejoin="round"/>
<path d="M194.607 127.218V132.341" stroke="white" stroke-linecap="round" stroke-linejoin="round"/>
<path d="M226.15 127.218V132.341" stroke="white" stroke-linecap="round" stroke-linejoin="round"/>
<path d="M335.229 77.775H204.834V200.665H335.229V77.775Z" fill="#263238" stroke="#263238" stroke-linecap="round" stroke-linejoin="round"/>
<path d="M332.579 44.8992H198.194V198.428H332.579V44.8992Z" fill="white" stroke="#263238" stroke-linecap="round" stroke-linejoin="round"/>
<path d="M332.579 44.8992H228.417V198.428H332.579V44.8992Z" fill="white" stroke="#263238" stroke-linecap="round" stroke-linejoin="round"/>
<path d="M332.579 44.8992H198.194V55.2418H332.579V44.8992Z" fill="#263238" stroke="#263238" stroke-miterlimit="10"/>
<path d="M260.63 60.4725H234.217V93.1862H260.63V60.4725Z" fill="#007BFF" stroke="#263238" stroke-miterlimit="10"/>
<path d="M234.217 93.1862L238.612 85.6211L251.467 83.6542L260.438 88.3338L260.63 93.1862H234.217Z" fill="#263238" stroke="#263238" stroke-linecap="round" stroke-linejoin="round"/>
<path d="M252.191 79.2232L251.467 83.6542L243.709 89.3172L242.741 83.9028L252.191 79.2232Z" fill="white" stroke="#263238" stroke-linecap="round" stroke-linejoin="round"/>
<path d="M241.038 71.831C241.038 71.831 239.101 83.1571 242.251 84.8862C245.401 86.6154 253.404 79.2232 254.138 78.4883C254.872 77.7534 258.746 76.7591 258.746 73.5602C258.746 70.3612 256.32 71.0961 256.32 71.0961C256.32 71.0961 257.767 66.9137 257.043 65.1845C256.32 63.4554 243.209 62.2341 240.07 64.2011C236.93 66.168 241.038 71.831 241.038 71.831Z" fill="white" stroke="#263238" stroke-linecap="round" stroke-linejoin="round"/>
<path d="M257.043 65.1845C256.32 63.4662 243.209 62.2341 240.07 64.2011C236.93 66.168 241.038 71.831 241.038 71.831C241.038 71.831 242.496 72.8253 246.359 71.831C250.222 70.8367 252.904 69.8641 252.904 69.8641C252.904 69.8641 249.711 73.5602 251.201 73.8088L252.659 74.0465L253.149 76.7592L256.341 71.0961C256.341 71.0961 257.767 66.9137 257.043 65.1845Z" fill="#263238" stroke="#263238" stroke-linecap="round" stroke-linejoin="round"/>
<path d="M243.709 74.5437L242.634 79.7312L244.816 79.4934" stroke="#263238" stroke-linecap="round" stroke-linejoin="round"/>
<path d="M247.412 74.9543C247.412 75.4515 247.178 75.8621 246.88 75.8621C246.582 75.8621 246.359 75.4515 246.359 74.9543C246.359 74.4572 246.593 74.0465 246.88 74.0465C247.168 74.0465 247.412 74.4572 247.412 74.9543Z" fill="#263238"/>
<path d="M242.879 74.522C242.879 75.03 242.645 75.4407 242.357 75.4407C242.07 75.4407 241.836 75.03 241.836 74.522C241.836 74.0141 242.07 73.6142 242.357 73.6142C242.645 73.6142 242.879 74.0249 242.879 74.522Z" fill="#263238"/>
<path d="M245.837 72.7605C246.818 72.5985 247.823 72.7896 248.679 73.3008" stroke="#263238" stroke-linecap="round" stroke-linejoin="round"/>
<path d="M242.985 80.7795C242.985 80.7795 245.731 81.4279 247.412 79.9257" stroke="#263238" stroke-linecap="round" stroke-linejoin="round"/>
<path d="M326.705 60.2456H267.068V72.1877H326.705V60.2456Z" fill="white" stroke="#263238" stroke-linecap="round" stroke-linejoin="round"/>
<path d="M275.571 61.9856L276.518 64.9468H279.583L277.103 66.7732L278.05 69.7344L275.571 67.908L273.091 69.7344L274.038 66.7732L271.559 64.9468H274.624L275.571 61.9856Z" fill="#007BFF"/>
<path d="M286.255 61.9856L287.202 64.9468H290.267L287.788 66.7732L288.735 69.7344L286.255 67.908L283.776 69.7344L284.723 66.7732L282.243 64.9468H285.308L286.255 61.9856Z" fill="#007BFF"/>
<path d="M296.94 61.9856L297.887 64.9468H300.952L298.472 66.7732L299.419 69.7344L296.94 67.908L294.46 69.7344L295.407 66.7732L292.928 64.9468H295.993L296.94 61.9856Z" fill="#007BFF"/>
<path d="M307.624 61.9856L308.571 64.9468H311.636L309.157 66.7732L310.104 69.7344L307.624 67.908L305.145 69.7344L306.092 66.7732L303.612 64.9468H306.677L307.624 61.9856Z" fill="#007BFF"/>
<path d="M318.308 61.9856L319.255 64.9468H322.331L319.841 66.7732L320.799 69.7344L318.308 67.908L315.829 69.7344L316.776 66.7732L314.296 64.9468H317.361L318.308 61.9856Z" fill="#DBDBDB"/>
<path d="M326.705 78.1641H267.068V144.694H326.705V78.1641Z" fill="white" stroke="#263238" stroke-linecap="round" stroke-linejoin="round"/>
<path d="M326.705 149.816H267.068V194.17H326.705V149.816Z" fill="white" stroke="#263238" stroke-linecap="round" stroke-linejoin="round"/>
<path d="M235.281 101.475H258.458" stroke="#263238" stroke-linecap="round" stroke-linejoin="round"/>
<path d="M235.281 128.775H258.458" stroke="#263238" stroke-linecap="round" stroke-linejoin="round"/>
<path d="M200.727 100.308H223.915" stroke="#263238" stroke-linecap="round" stroke-linejoin="round"/>
<path d="M200.727 73.4197H223.915" stroke="#263238" stroke-linecap="round" stroke-linejoin="round"/>
<path d="M200.727 64.0606H223.915" stroke="#263238" stroke-linecap="round" stroke-linejoin="round"/>
<path d="M235.281 136.729H258.458" stroke="#263238" stroke-linecap="round" stroke-linejoin="round"/>
<path d="M235.281 144.694H258.458" stroke="#263238" stroke-linecap="round" stroke-linejoin="round"/>
<path d="M235.281 152.659H258.458" stroke="#263238" stroke-linecap="round" stroke-linejoin="round"/>
<path d="M235.281 160.613H258.458" stroke="#263238" stroke-linecap="round" stroke-linejoin="round"/>
<path d="M235.281 168.578H258.458" stroke="#263238" stroke-linecap="round" stroke-linejoin="round"/>
<path d="M235.281 176.532H258.458" stroke="#263238" stroke-linecap="round" stroke-linejoin="round"/>
<path d="M235.281 184.497H258.458" stroke="#263238" stroke-linecap="round" stroke-linejoin="round"/>
<path d="M235.281 104.685H250.626" stroke="#263238" stroke-linecap="round" stroke-linejoin="round"/>
<path d="M267.068 112.845H228.991V123.079H267.068V112.845Z" fill="#007BFF" stroke="#263238" stroke-linecap="round" stroke-linejoin="round"/>
<path d="M228.608 81.0064H198.758V91.2409H228.608V81.0064Z" fill="#007BFF" stroke="#263238" stroke-linecap="round" stroke-linejoin="round"/>
<path d="M270.995 83.8487H300.111" stroke="#263238" stroke-linecap="round" stroke-linejoin="round"/>
<path d="M270.995 158.905H300.111" stroke="#263238" stroke-linecap="round" stroke-linejoin="round"/>
<path d="M270.995 95.218H287.224" stroke="#263238" stroke-linecap="round" stroke-linejoin="round"/>
<path d="M270.995 103.183H287.224" stroke="#263238" stroke-linecap="round" stroke-linejoin="round"/>
<path d="M270.995 111.148H287.224" stroke="#263238" stroke-linecap="round" stroke-linejoin="round"/>
<path d="M270.995 119.102H287.224" stroke="#263238" stroke-linecap="round" stroke-linejoin="round"/>
<path d="M270.995 127.067H287.224" stroke="#263238" stroke-linecap="round" stroke-linejoin="round"/>
<path d="M270.995 135.021H287.224" stroke="#263238" stroke-linecap="round" stroke-linejoin="round"/>
<path d="M294.503 95.218H310.742" stroke="#263238" stroke-linecap="round" stroke-linejoin="round"/>
<path d="M294.503 103.183H310.742" stroke="#263238" stroke-linecap="round" stroke-linejoin="round"/>
<path d="M294.503 111.148H310.742" stroke="#263238" stroke-linecap="round" stroke-linejoin="round"/>
<path d="M294.503 119.102H310.742" stroke="#263238" stroke-linecap="round" stroke-linejoin="round"/>
<path d="M294.503 127.067H310.742" stroke="#263238" stroke-linecap="round" stroke-linejoin="round"/>
<path d="M294.503 135.021H310.742" stroke="#263238" stroke-linecap="round" stroke-linejoin="round"/>
<path d="M270.995 87.2638H312.424" stroke="#263238" stroke-linecap="round" stroke-linejoin="round"/>
<path d="M326.418 164.601H267.068V168.016H326.418V164.601Z" fill="#263238" stroke="#263238" stroke-linecap="round" stroke-linejoin="round"/>
<path d="M219.478 47.4606V52.5724" stroke="white" stroke-linecap="round" stroke-linejoin="round"/>
<path d="M251.02 47.4606V52.5724" stroke="white" stroke-linecap="round" stroke-linejoin="round"/>
<path d="M282.562 47.4606V52.5724" stroke="white" stroke-linecap="round" stroke-linejoin="round"/>
<path d="M314.105 47.4606V52.5724" stroke="white" stroke-linecap="round" stroke-linejoin="round"/>
</svg>
