<svg width="623" height="497" viewBox="0 0 623 497" fill="none" xmlns="http://www.w3.org/2000/svg">
<path d="M336.935 48.6878C329.821 44.8116 326.539 48.0343 323.999 44.8116C321.459 41.5888 331.113 33.1681 311.717 24.7771C311.717 24.7771 310.425 6.67322 283.93 6.01976C257.435 5.3663 264.534 24.1236 257.42 28.6533C250.306 33.183 248.376 26.0691 241.262 30.584C234.148 35.0988 237.386 44.1581 231.564 45.4353C225.742 46.7126 217.99 39.6285 210.891 44.1433C203.792 48.6581 203.777 52.5492 200.495 52.5492C197.213 52.5492 190.797 49.965 186.921 52.5492C183.044 55.1333 178.515 58.3709 178.515 58.3709H342.103C342.103 58.3709 344.034 52.564 336.935 48.6878Z" fill="#007BFF"/>
<path d="M336.935 48.6878C329.821 44.8116 326.539 48.0343 323.999 44.8116C321.459 41.5888 331.113 33.1681 311.717 24.7771C311.717 24.7771 310.425 6.67322 283.93 6.01976C257.435 5.3663 264.534 24.1236 257.42 28.6533C250.306 33.183 248.376 26.0691 241.262 30.584C234.148 35.0988 237.386 44.1581 231.564 45.4353C225.742 46.7126 217.99 39.6285 210.891 44.1433C203.792 48.6581 203.777 52.5492 200.495 52.5492C197.213 52.5492 190.797 49.965 186.921 52.5492C183.044 55.1333 178.515 58.3709 178.515 58.3709H342.103C342.103 58.3709 344.034 52.564 336.935 48.6878Z" fill="#007BFF"/>
<path opacity="0.7" d="M336.935 48.6878C329.821 44.8116 326.539 48.0343 323.999 44.8116C321.459 41.5888 331.113 33.1681 311.717 24.7771C311.717 24.7771 310.425 6.67322 283.93 6.01976C257.435 5.3663 264.534 24.1236 257.42 28.6533C250.306 33.183 248.376 26.0691 241.262 30.584C234.148 35.0988 237.386 44.1581 231.564 45.4353C225.742 46.7126 217.99 39.6285 210.891 44.1433C203.792 48.6581 203.777 52.5492 200.495 52.5492C197.213 52.5492 190.797 49.965 186.921 52.5492C183.044 55.1333 178.515 58.3709 178.515 58.3709H342.103C342.103 58.3709 344.034 52.564 336.935 48.6878Z" fill="white"/>
<path opacity="0.8" d="M535.319 118.326C531.399 116.173 529.616 117.97 528.191 116.173C526.765 114.376 532.112 109.757 521.404 105.108C521.404 105.108 520.691 95.1133 506.047 94.7123C491.404 94.3113 495.339 104.707 491.419 107.217C487.498 109.727 486.414 105.732 482.508 108.286C478.602 110.841 480.369 115.712 477.146 116.499C473.924 117.286 469.647 113.277 465.726 115.772C461.805 118.267 461.805 120.42 460.008 120.42C458.211 120.42 454.662 118.935 452.582 120.42C450.503 121.905 447.934 123.628 447.934 123.628H538.26C538.26 123.628 539.255 120.39 535.319 118.326Z" fill="#B2D8FF"/>
<path opacity="0.8" d="M111.743 199.459C107.822 197.321 106.025 199.103 104.599 197.321C103.174 195.538 108.535 190.89 97.8272 186.241C97.8272 186.241 97.1143 176.246 82.4709 175.845C67.8274 175.444 71.763 185.84 67.8274 188.35C63.8918 190.86 62.8373 186.865 58.9166 189.42C54.9958 191.974 56.7631 196.845 53.5552 197.632C50.3473 198.42 46.1295 194.41 42.1345 196.92C38.1395 199.429 38.1989 201.553 36.4167 201.553C34.6345 201.553 31.0702 200.068 28.9168 201.553C26.7633 203.038 24.2831 204.761 24.2831 204.761H114.594C114.594 204.761 115.679 201.598 111.743 199.459Z" fill="#B2D8FF"/>
<path d="M312.073 330.003L309.682 82.6826L358.469 82.2074L357.043 338.141L312.073 330.003Z" fill="white" stroke="#263238" stroke-linecap="round" stroke-linejoin="round"/>
<path d="M315.563 87.8212L315.95 188.811" stroke="#263238" stroke-width="0.75" stroke-linecap="round" stroke-linejoin="round"/>
<path d="M322.722 88.2074V211.073" stroke="#263238" stroke-width="0.75" stroke-linecap="round" stroke-linejoin="round"/>
<path d="M330.667 87.8212L331.469 212.662" stroke="#263238" stroke-width="0.75" stroke-linecap="round" stroke-linejoin="round"/>
<path d="M340.603 89.0093V211.073" stroke="#263238" stroke-width="0.75" stroke-linecap="round" stroke-linejoin="round"/>
<path d="M349.751 89.4103V302.142" stroke="#263238" stroke-width="0.75" stroke-linecap="round" stroke-linejoin="round"/>
<path d="M311.984 98.9449L354.92 99.3459" stroke="#263238" stroke-width="0.75" stroke-linecap="round" stroke-linejoin="round"/>
<path d="M312.385 114.851L354.533 116.039" stroke="#263238" stroke-width="0.75" stroke-linecap="round" stroke-linejoin="round"/>
<path d="M313.172 131.158L353.732 133.148" stroke="#263238" stroke-width="0.75" stroke-linecap="round" stroke-linejoin="round"/>
<path d="M312.771 147.464L354.533 150.242" stroke="#263238" stroke-width="0.75" stroke-linecap="round" stroke-linejoin="round"/>
<path d="M313.172 163.37L353.331 167.737" stroke="#263238" stroke-width="0.75" stroke-linecap="round" stroke-linejoin="round"/>
<path d="M358.469 82.2074L396.266 82.6826L393.4 312.79L357.043 338.141L358.469 82.2074Z" fill="#263238" stroke="#263238" stroke-linecap="round" stroke-linejoin="round"/>
<path d="M392.375 88.2074V211.073" stroke="white" stroke-width="0.75" stroke-linecap="round" stroke-linejoin="round"/>
<path d="M384.429 87.8212L384.518 228.449" stroke="white" stroke-width="0.75" stroke-linecap="round" stroke-linejoin="round"/>
<path d="M374.494 89.0093L374.687 233.602" stroke="white" stroke-width="0.75" stroke-linecap="round" stroke-linejoin="round"/>
<path d="M365.345 89.4103V302.142" stroke="white" stroke-width="0.75" stroke-linecap="round" stroke-linejoin="round"/>
<path d="M395.271 98.8558L360.177 99.3459" stroke="white" stroke-width="0.75" stroke-linecap="round" stroke-linejoin="round"/>
<path d="M395.271 115.697L360.563 116.039" stroke="white" stroke-width="0.75" stroke-linecap="round" stroke-linejoin="round"/>
<path d="M396.206 131.128L361.365 133.148" stroke="white" stroke-width="0.75" stroke-linecap="round" stroke-linejoin="round"/>
<path d="M394.81 148.445L360.563 150.242" stroke="white" stroke-width="0.75" stroke-linecap="round" stroke-linejoin="round"/>
<path d="M394.81 164.35L361.766 167.737" stroke="white" stroke-width="0.75" stroke-linecap="round" stroke-linejoin="round"/>
<path d="M393.875 180.732L360.83 184.118" stroke="white" stroke-width="0.75" stroke-linecap="round" stroke-linejoin="round"/>
<path d="M393.875 195.226L359.895 200.484" stroke="white" stroke-width="0.75" stroke-linecap="round" stroke-linejoin="round"/>
<path d="M392.375 211.073L358.959 216.865" stroke="white" stroke-width="0.75" stroke-linecap="round" stroke-linejoin="round"/>
<path d="M356.019 1H352.707V53.1581H356.019V1Z" fill="white" stroke="#263238" stroke-linecap="round" stroke-linejoin="round"/>
<path d="M333.311 62.2917L333.147 49.8017L374.078 50.4551L374.405 63.1234L333.311 62.2917Z" fill="white" stroke="#263238" stroke-linecap="round" stroke-linejoin="round"/>
<path d="M355.662 62.6184V50.4551H374.078L374.405 63.1234L355.662 62.6184Z" fill="#263238" stroke="#263238" stroke-linecap="round" stroke-linejoin="round"/>
<path d="M309.682 82.6826L319.722 71.2025L358.469 70.7273V82.2074L309.682 82.6826Z" fill="white" stroke="#263238" stroke-linecap="round" stroke-linejoin="round"/>
<path d="M358.469 70.7273L387.652 71.6778L396.266 82.6826L358.469 82.2074V70.7273Z" fill="#263238" stroke="#263238" stroke-linecap="round" stroke-linejoin="round"/>
<path d="M319.722 71.2025V62.5887L358.454 62.2917L358.469 70.7273L319.722 71.2025Z" fill="white" stroke="#263238" stroke-linecap="round" stroke-linejoin="round"/>
<path d="M358.454 62.2917L387.711 63.2867L387.652 71.6778L358.469 70.7273L358.454 62.2917Z" fill="#263238" stroke="#263238" stroke-linecap="round" stroke-linejoin="round"/>
<path d="M505.542 299.721L534.621 306.255L536.805 248.84L559.334 238.652L590.596 245.929L589.141 338.973L605.864 341.884L604.408 495.225L522.265 469.101L456.117 449.467L505.542 299.721Z" fill="#263238"/>
<path d="M390.637 168.375L474.562 175.489L502.067 167.9L417.191 161.261L390.637 168.375Z" fill="white" stroke="#263238" stroke-linecap="round" stroke-linejoin="round"/>
<path d="M474.562 175.489L472.186 314.884L499.691 302.082L502.067 167.9L474.562 175.489Z" fill="#263238" stroke="#263238" stroke-linecap="round" stroke-linejoin="round"/>
<path d="M390.637 168.375L390.162 297.345L472.186 314.884L474.562 175.489L390.637 168.375Z" fill="white" stroke="#263238" stroke-linecap="round" stroke-linejoin="round"/>
<path d="M460.988 207.895L398.479 201.835V175.905L460.988 181.964V207.895Z" fill="#28A745" stroke="#263238" stroke-miterlimit="10"/>
<path d="M406.833 192.599L405.823 184.194L406.95 184.307L407.556 190.284L408.326 184.444L409.34 184.546L410.114 190.54L410.649 184.677L411.781 184.79L410.833 192.999L409.579 192.873L408.847 187.28L408.086 192.724L406.833 192.599ZM412.123 193.128L413.299 184.962L414.956 185.128L416.207 193.536L415.036 193.419L414.839 191.922L413.509 191.789L413.331 193.249L412.123 193.128ZM413.631 190.789L414.708 190.897L414.156 186.681L414.137 186.679L413.631 190.789ZM416.956 193.611V185.328L417.939 185.426L419.686 190.571L419.597 188.303V185.592L420.726 185.705V193.988L419.836 193.899L418.042 188.576L418.113 190.757V193.727L416.956 193.611ZM422.398 194.155V186.964L421.433 186.868V185.776L424.575 186.09V187.182L423.648 187.089V194.28L422.398 194.155ZM425.282 194.444V186.161L428.045 186.437V187.524L426.537 187.373V189.783L427.97 189.926V190.99L426.537 190.847V193.482L428.101 193.639V194.726L425.282 194.444ZM429.029 194.818V186.535L430.878 186.72C431.297 186.762 431.632 186.88 431.885 187.075C432.138 187.267 432.321 187.527 432.433 187.855C432.549 188.183 432.606 188.572 432.606 189.02L432.611 192.758C432.611 193.3 432.552 193.746 432.433 194.095C432.318 194.441 432.13 194.689 431.871 194.839C431.612 194.989 431.267 195.042 430.836 194.999L429.029 194.818ZM430.284 193.965L430.696 194.006C430.842 194.021 430.964 194.003 431.061 193.953C431.161 193.904 431.234 193.806 431.281 193.66C431.331 193.511 431.356 193.297 431.356 193.018L431.351 188.928C431.351 188.504 431.3 188.195 431.197 187.999C431.094 187.804 430.913 187.693 430.654 187.667L430.284 187.63V193.965Z" fill="#263238"/>
<path d="M375.697 239.736L429.756 246.493L462.117 232.266L410.553 226.221L375.697 239.736Z" fill="white" stroke="#263238" stroke-linecap="round" stroke-linejoin="round"/>
<path d="M385.736 238.949L427.231 244.132L452.077 233.216L412.498 228.568L385.736 238.949Z" fill="white" stroke="#263238" stroke-width="0.75" stroke-linecap="round" stroke-linejoin="round"/>
<path d="M375.697 239.736L374.286 349.265L426.904 363.478L429.756 246.493L375.697 239.736Z" fill="white" stroke="#263238" stroke-linecap="round" stroke-linejoin="round"/>
<path d="M429.756 246.493L462.117 232.266L459.978 348.909L426.904 363.478L429.756 246.493Z" fill="#263238" stroke="#263238" stroke-linecap="round" stroke-linejoin="round"/>
<path d="M246.92 380.691L242.316 244.934L197.361 236.87L201.683 369.121L246.92 380.691Z" fill="white" stroke="#263238" stroke-linecap="round" stroke-linejoin="round"/>
<path d="M200.643 285.033L241.202 294.983" stroke="#263238" stroke-width="0.75" stroke-linecap="round" stroke-linejoin="round"/>
<path d="M202.633 289.815L241.603 299.751" stroke="#263238" stroke-width="0.75" stroke-linecap="round" stroke-linejoin="round"/>
<path d="M203.034 315.255L242.004 325.191" stroke="#263238" stroke-width="0.75" stroke-linecap="round" stroke-linejoin="round"/>
<path d="M201.044 311.275L241.603 322.013" stroke="#263238" stroke-width="0.75" stroke-linecap="round" stroke-linejoin="round"/>
<path d="M242.316 244.934L279.207 234.568L280.93 352.191L246.92 380.691L242.316 244.934Z" fill="#263238" stroke="#263238" stroke-linecap="round" stroke-linejoin="round"/>
<path d="M197.361 236.87L248.658 224.766L279.207 234.568L242.316 244.934L197.361 236.87Z" fill="white" stroke="#263238" stroke-linecap="round" stroke-linejoin="round"/>
<path d="M201.104 244.37L238.767 250.578L239.287 277.919L202.039 270.865L201.104 244.37Z" fill="#28A745" stroke="#263238" stroke-linecap="round" stroke-linejoin="round"/>
<path d="M207.55 255.04L206.877 249.35L207.629 249.469L208.033 253.511L208.547 249.614L209.224 249.721L209.741 253.782L210.098 249.86L210.853 249.979L210.22 255.463L209.384 255.331L208.895 251.541L208.387 255.173L207.55 255.04ZM211.408 255.651V250.067L213.257 250.36V251.093L212.248 250.933V252.558L213.207 252.71V253.427L212.248 253.275V255.052L213.294 255.217V255.95L211.408 255.651ZM214.742 256.18L215.529 250.72L216.638 250.896L217.475 256.613L216.691 256.488L216.56 255.471L215.67 255.33L215.551 256.308L214.742 256.18ZM215.751 254.661L216.472 254.775L216.102 251.912L216.09 251.91L215.751 254.661ZM217.976 256.692V251.108L219.364 251.328C219.653 251.373 219.868 251.465 220.01 251.601C220.152 251.738 220.245 251.92 220.289 252.147C220.335 252.374 220.358 252.646 220.358 252.964C220.358 253.292 220.324 253.544 220.258 253.722C220.193 253.898 220.059 254.001 219.856 254.033C219.952 254.065 220.033 254.118 220.098 254.192C220.162 254.263 220.215 254.362 220.254 254.489C220.294 254.614 220.322 254.772 220.339 254.963C220.358 255.152 220.367 255.382 220.367 255.653C220.367 255.674 220.367 255.733 220.367 255.83C220.367 255.927 220.367 256.043 220.367 256.176C220.369 256.307 220.371 256.439 220.373 256.57C220.376 256.702 220.379 256.815 220.383 256.908C220.387 257.002 220.392 257.058 220.399 257.076L219.559 256.943C219.552 256.931 219.547 256.876 219.543 256.778C219.541 256.679 219.538 256.552 219.534 256.399C219.532 256.247 219.529 256.082 219.527 255.907C219.527 255.731 219.527 255.559 219.527 255.389C219.527 255.218 219.527 255.067 219.527 254.936C219.527 254.769 219.515 254.641 219.49 254.552C219.467 254.462 219.423 254.395 219.358 254.35C219.295 254.307 219.205 254.272 219.085 254.247L218.816 254.188V256.825L217.976 256.692ZM218.819 253.529L219.154 253.582C219.257 253.598 219.334 253.587 219.386 253.549C219.441 253.511 219.477 253.431 219.496 253.309C219.517 253.188 219.527 253.01 219.527 252.775V252.74C219.527 252.543 219.518 252.391 219.499 252.282C219.48 252.173 219.441 252.094 219.38 252.044C219.322 251.995 219.23 251.96 219.104 251.94L218.819 251.895V253.529ZM221.085 257.184V251.6L222.934 251.893V252.626L221.925 252.466V254.091L222.884 254.243V254.96L221.925 254.808V256.585L222.971 256.75V257.483L221.085 257.184Z" fill="#263238"/>
<path d="M207.506 265.578V259.994L208.346 260.127V262.386L209.098 262.505V260.246L209.938 260.379V265.963L209.098 265.83V263.235L208.346 263.116V265.711L207.506 265.578ZM210.784 266.097V260.513L211.624 260.646V266.23L210.784 266.097ZM212.47 266.364V260.78L213.858 261C214.146 261.046 214.362 261.137 214.504 261.274C214.646 261.41 214.739 261.592 214.783 261.819C214.829 262.046 214.852 262.319 214.852 262.636C214.852 262.964 214.818 263.216 214.751 263.394C214.686 263.57 214.553 263.674 214.35 263.705C214.446 263.737 214.527 263.79 214.591 263.864C214.656 263.935 214.708 264.035 214.748 264.161C214.788 264.286 214.816 264.444 214.833 264.635C214.852 264.824 214.861 265.054 214.861 265.325C214.861 265.346 214.861 265.405 214.861 265.502C214.861 265.6 214.861 265.715 214.861 265.848C214.863 265.98 214.865 266.111 214.867 266.243C214.869 266.374 214.872 266.487 214.877 266.58C214.881 266.674 214.886 266.73 214.892 266.748L214.052 266.615C214.046 266.603 214.041 266.549 214.037 266.451C214.035 266.351 214.032 266.224 214.027 266.072C214.025 265.919 214.023 265.755 214.021 265.579C214.021 265.403 214.021 265.231 214.021 265.062C214.021 264.89 214.021 264.739 214.021 264.608C214.021 264.441 214.009 264.313 213.983 264.224C213.96 264.134 213.917 264.067 213.852 264.023C213.789 263.979 213.698 263.944 213.579 263.919L213.31 263.861V266.497L212.47 266.364ZM213.313 263.201L213.648 263.254C213.751 263.271 213.828 263.26 213.88 263.221C213.934 263.183 213.971 263.103 213.99 262.982C214.011 262.86 214.021 262.682 214.021 262.447V262.412C214.021 262.216 214.012 262.063 213.993 261.954C213.974 261.845 213.934 261.766 213.874 261.716C213.815 261.667 213.723 261.632 213.598 261.612L213.313 261.567V263.201ZM215.597 266.86V261.276L216.437 261.409V266.993L215.597 266.86ZM217.283 267.127V261.543L217.941 261.647L219.11 265.182L219.051 263.65V261.823L219.806 261.942V267.526L219.21 267.432L218.01 263.774L218.057 265.247V267.249L217.283 267.127ZM221.674 267.879C221.341 267.827 221.074 267.652 220.871 267.356C220.669 267.057 220.567 266.609 220.567 266.013V263.586C220.567 263.336 220.59 263.117 220.636 262.927C220.684 262.738 220.757 262.584 220.856 262.464C220.956 262.342 221.085 262.259 221.244 262.215C221.403 262.168 221.594 262.162 221.818 262.197C222.06 262.236 222.257 262.304 222.41 262.402C222.562 262.498 222.679 262.623 222.761 262.775C222.845 262.926 222.902 263.104 222.933 263.31C222.965 263.516 222.98 263.746 222.98 264V264.396L222.197 264.272V263.688C222.197 263.437 222.171 263.254 222.119 263.14C222.068 263.026 221.972 262.958 221.83 262.936C221.674 262.911 221.565 262.956 221.504 263.071C221.444 263.184 221.413 263.398 221.413 263.713V266.134C221.413 266.485 221.439 266.741 221.489 266.901C221.541 267.06 221.649 267.152 221.811 267.178C221.97 267.203 222.082 267.143 222.147 266.999C222.214 266.853 222.247 266.598 222.247 266.235V265.483L221.824 265.416V264.797L222.98 264.98V268.029L222.604 267.97L222.476 267.4C222.43 267.586 222.332 267.719 222.181 267.801C222.033 267.883 221.864 267.909 221.674 267.879Z" fill="#263238"/>
<path d="M251.539 187.89L257.212 379.963L305.034 393.21L302.257 194.796L251.539 187.89Z" fill="white" stroke="#263238" stroke-linecap="round" stroke-linejoin="round"/>
<path d="M258.445 203.127L263.049 366.879" stroke="#263238" stroke-width="0.75" stroke-linecap="round" stroke-linejoin="round"/>
<path d="M258.163 193.355L258.311 198.241" stroke="#263238" stroke-width="0.75" stroke-linecap="round" stroke-linejoin="round"/>
<path d="M265.989 195.271L269.539 368.022" stroke="#263238" stroke-width="0.75" stroke-linecap="round" stroke-linejoin="round"/>
<path d="M273.935 197.172L276.4 370.31" stroke="#263238" stroke-width="0.75" stroke-linecap="round" stroke-linejoin="round"/>
<path d="M281.569 198.137L284.034 371.067" stroke="#263238" stroke-width="0.75" stroke-linecap="round" stroke-linejoin="round"/>
<path d="M289.826 200.677L292.039 374.512" stroke="#263238" stroke-width="0.75" stroke-linecap="round" stroke-linejoin="round"/>
<path d="M298.202 227.588L300.059 374.884" stroke="#263238" stroke-width="0.75" stroke-linecap="round" stroke-linejoin="round"/>
<path d="M297.935 200.87L298.128 220.607" stroke="#263238" stroke-width="0.75" stroke-linecap="round" stroke-linejoin="round"/>
<path d="M347.791 184.43L402.355 306.166V421.176L340.751 395.705L347.791 184.43Z" fill="#263238"/>
<path d="M376.068 260.157V296.305" stroke="white" stroke-width="0.75" stroke-linecap="round" stroke-linejoin="round"/>
<path d="M302.257 194.796L347.791 184.43V404.364L303.994 393.329L302.257 194.796Z" fill="#263238" stroke="#263238" stroke-linecap="round" stroke-linejoin="round"/>
<path d="M338.613 204.063L339.949 386.304" stroke="white" stroke-width="0.75" stroke-linecap="round" stroke-linejoin="round"/>
<path d="M338.553 192.85L338.583 198.241" stroke="white" stroke-width="0.75" stroke-linecap="round" stroke-linejoin="round"/>
<path d="M330.608 195.583L332.301 385.161" stroke="white" stroke-width="0.75" stroke-linecap="round" stroke-linejoin="round"/>
<path d="M322.974 197.335L324.073 385.161" stroke="white" stroke-width="0.75" stroke-linecap="round" stroke-linejoin="round"/>
<path d="M314.702 200.736L316.143 381.196" stroke="white" stroke-width="0.75" stroke-linecap="round" stroke-linejoin="round"/>
<path d="M306.608 201.776L308.761 379.205" stroke="white" stroke-width="0.75" stroke-linecap="round" stroke-linejoin="round"/>
<path d="M251.539 187.89L301.113 179.232L347.791 184.429L302.257 194.796L251.539 187.89Z" fill="white" stroke="#263238" stroke-linecap="round" stroke-linejoin="round"/>
<path d="M261.579 187.697L300.801 180.865L337.751 184.964L301.722 193.177L261.579 187.697Z" fill="white" stroke="#263238" stroke-width="0.75" stroke-linecap="round" stroke-linejoin="round"/>
<path d="M305.405 228.479L346.157 216.434V240.984L305.405 254.409V228.479Z" fill="#28A745" stroke="#263238" stroke-miterlimit="10"/>
<path d="M316.162 241.811C315.557 241.999 315.083 241.957 314.74 241.686C314.401 241.409 314.228 240.901 314.22 240.161L314.203 238.437L315.561 238.014L315.578 239.668C315.58 239.858 315.592 240.03 315.615 240.185C315.641 240.339 315.691 240.452 315.765 240.524C315.84 240.596 315.954 240.609 316.108 240.561C316.262 240.513 316.375 240.432 316.447 240.317C316.52 240.199 316.567 240.052 316.59 239.876C316.613 239.697 316.623 239.489 316.621 239.255L316.547 231.884L317.953 231.447L318.026 238.747C318.034 239.541 317.872 240.205 317.541 240.738C317.213 241.269 316.753 241.627 316.162 241.811ZM321.402 240.182C320.923 240.331 320.53 240.346 320.224 240.228C319.921 240.11 319.696 239.864 319.549 239.491C319.401 239.118 319.324 238.624 319.318 238.009L319.274 233.587C319.268 233.031 319.333 232.533 319.469 232.094C319.605 231.655 319.824 231.282 320.126 230.975C320.428 230.668 320.826 230.438 321.319 230.285C321.69 230.169 322.003 230.133 322.26 230.174C322.516 230.216 322.724 230.327 322.884 230.509C323.044 230.687 323.16 230.93 323.233 231.238C323.31 231.541 323.35 231.901 323.355 232.319L323.399 236.74C323.405 237.355 323.34 237.893 323.204 238.354C323.072 238.814 322.859 239.196 322.563 239.501C322.268 239.806 321.881 240.033 321.402 240.182ZM321.389 238.907C321.564 238.853 321.695 238.757 321.781 238.62C321.868 238.483 321.924 238.299 321.949 238.067C321.978 237.83 321.991 237.539 321.988 237.195L321.943 232.691C321.939 232.27 321.897 231.958 321.818 231.755C321.742 231.547 321.58 231.482 321.332 231.559C321.077 231.638 320.905 231.804 320.816 232.055C320.727 232.303 320.685 232.643 320.689 233.076L320.734 237.585C320.738 237.936 320.755 238.221 320.785 238.44C320.819 238.653 320.882 238.799 320.974 238.877C321.069 238.954 321.208 238.964 321.389 238.907ZM324.706 239.044L324.609 229.378L326.607 228.756C327.072 228.612 327.444 228.571 327.722 228.636C327.999 228.696 328.201 228.869 328.326 229.153C328.456 229.432 328.523 229.832 328.528 230.352L328.531 230.648C328.536 231.15 328.477 231.583 328.354 231.948C328.235 232.309 328.031 232.598 327.742 232.817C327.984 232.826 328.178 232.918 328.324 233.093C328.473 233.263 328.58 233.496 328.646 233.792C328.713 234.083 328.747 234.416 328.751 234.789L328.754 235.036C328.757 235.682 328.69 236.23 328.554 236.68C328.418 237.126 328.203 237.489 327.908 237.768C327.612 238.047 327.225 238.261 326.746 238.41L324.706 239.044ZM326.1 237.465L326.598 237.31C326.783 237.252 326.93 237.165 327.037 237.047C327.148 236.924 327.227 236.754 327.274 236.538C327.321 236.321 327.343 236.039 327.34 235.691L327.332 234.911C327.327 234.442 327.28 234.115 327.19 233.93C327.104 233.74 326.927 233.687 326.657 233.771L326.065 233.955L326.1 237.465ZM326.054 232.851L326.573 232.69C326.695 232.652 326.795 232.602 326.871 232.542C326.948 232.481 327.007 232.401 327.048 232.3C327.089 232.195 327.116 232.06 327.128 231.895C327.144 231.728 327.151 231.52 327.148 231.271L327.142 230.689C327.14 230.429 327.115 230.238 327.068 230.117C327.021 229.996 326.95 229.926 326.856 229.908C326.764 229.888 326.645 229.901 326.498 229.947L326.026 230.094L326.054 232.851Z" fill="#263238"/>
<path d="M392.746 289.889L346.647 310.072L409.038 323.023L445.766 297.968L392.746 289.889Z" fill="white" stroke="#263238" stroke-linecap="round" stroke-linejoin="round"/>
<path d="M393.221 292.191L353.524 309.567L407.256 320.721L438.889 299.142L393.221 292.191Z" fill="white" stroke="#263238" stroke-width="0.75" stroke-linecap="round" stroke-linejoin="round"/>
<path d="M346.647 310.072L347.791 404.364L408.31 419.349L409.038 323.023L346.647 310.072Z" fill="white" stroke="#263238" stroke-linecap="round" stroke-linejoin="round"/>
<path d="M356.301 391.636L355.766 375.864L391.528 385.324V401.096L356.301 391.636Z" fill="#263238"/>
<path d="M351.712 323.394L393.845 332.661L394.424 363.285L352.751 353.097L351.712 323.394Z" fill="#28A745" stroke="#263238" stroke-linecap="round" stroke-linejoin="round"/>
<path d="M358.404 336.37L357.626 329.694L358.495 329.876L358.962 334.615L359.556 330.099L360.338 330.264L360.935 335.029L361.348 330.476L362.221 330.659L361.49 337.018L360.523 336.815L359.958 332.367L359.371 336.573L358.404 336.37ZM362.862 337.306V330.794L364.998 331.242V332.097L363.832 331.852V333.747L364.941 333.979V334.816L363.832 334.583V336.655L365.042 336.909V337.764L362.862 337.306ZM366.715 338.115L367.624 331.794L368.906 332.063L369.873 338.778L368.967 338.588L368.815 337.394L367.787 337.178L367.649 338.311L366.715 338.115ZM367.881 336.402L368.714 336.577L368.286 333.217L368.272 333.214L367.881 336.402ZM370.452 338.9V332.387L372.056 332.724C372.389 332.794 372.638 332.913 372.802 333.081C372.966 333.248 373.074 333.466 373.124 333.733C373.177 334.001 373.204 334.32 373.204 334.69C373.204 335.072 373.165 335.365 373.088 335.568C373.013 335.77 372.859 335.883 372.625 335.907C372.736 335.951 372.829 336.017 372.903 336.107C372.978 336.194 373.039 336.313 373.085 336.463C373.13 336.611 373.163 336.796 373.182 337.02C373.204 337.242 373.215 337.51 373.215 337.826C373.215 337.851 373.215 337.92 373.215 338.033C373.215 338.147 373.215 338.281 373.215 338.437C373.217 338.59 373.22 338.743 373.222 338.897C373.225 339.05 373.228 339.182 373.233 339.291C373.238 339.401 373.244 339.466 373.251 339.488L372.281 339.284C372.273 339.27 372.267 339.206 372.263 339.091C372.26 338.975 372.256 338.827 372.252 338.649C372.249 338.471 372.247 338.279 372.244 338.074C372.244 337.869 372.244 337.668 372.244 337.47C372.244 337.271 372.244 337.094 372.244 336.941C372.244 336.746 372.23 336.597 372.201 336.492C372.174 336.385 372.124 336.304 372.049 336.249C371.976 336.194 371.871 336.149 371.734 336.113L371.422 336.029V339.104L370.452 338.9ZM371.426 335.26L371.813 335.341C371.932 335.366 372.021 335.358 372.081 335.316C372.144 335.275 372.186 335.184 372.208 335.043C372.232 334.903 372.244 334.695 372.244 334.422V334.381C372.244 334.151 372.234 333.973 372.212 333.845C372.19 333.717 372.144 333.622 372.074 333.561C372.007 333.5 371.9 333.454 371.756 333.423L371.426 333.354V335.26ZM374.044 339.654V333.142L376.181 333.59V334.445L375.015 334.2V336.095L376.123 336.328V337.164L375.015 336.931V339.003L376.224 339.257V340.112L374.044 339.654Z" fill="#263238"/>
<path d="M358.353 346.903V340.391L359.323 340.595V343.229L360.193 343.412V340.777L361.163 340.981V347.494L360.193 347.29V344.263L359.323 344.081V347.107L358.353 346.903ZM362.141 347.699V341.187L363.111 341.39V347.903L362.141 347.699ZM364.089 348.108V341.596L365.693 341.933C366.026 342.003 366.275 342.121 366.439 342.289C366.603 342.457 366.711 342.674 366.761 342.941C366.814 343.209 366.841 343.528 366.841 343.898C366.841 344.28 366.802 344.573 366.725 344.776C366.65 344.978 366.496 345.091 366.262 345.116C366.373 345.159 366.466 345.225 366.54 345.315C366.615 345.402 366.676 345.521 366.721 345.671C366.767 345.819 366.8 346.005 366.819 346.228C366.841 346.45 366.852 346.718 366.852 347.034C366.852 347.059 366.852 347.128 366.852 347.241C366.852 347.355 366.852 347.489 366.852 347.645C366.854 347.798 366.857 347.952 366.859 348.105C366.862 348.259 366.865 348.39 366.87 348.5C366.875 348.609 366.881 348.675 366.888 348.696L365.918 348.492C365.91 348.478 365.904 348.414 365.899 348.3C365.897 348.183 365.893 348.036 365.889 347.857C365.886 347.679 365.884 347.487 365.881 347.282C365.881 347.077 365.881 346.876 365.881 346.679C365.881 346.479 365.881 346.303 365.881 346.15C365.881 345.955 365.867 345.805 365.838 345.7C365.811 345.593 365.761 345.513 365.686 345.457C365.613 345.403 365.508 345.357 365.371 345.321L365.059 345.237V348.312L364.089 348.108ZM365.063 344.468L365.45 344.549C365.569 344.574 365.658 344.566 365.718 344.524C365.781 344.483 365.823 344.392 365.845 344.251C365.869 344.111 365.881 343.904 365.881 343.63V343.589C365.881 343.36 365.871 343.181 365.849 343.053C365.827 342.925 365.781 342.83 365.711 342.769C365.644 342.708 365.537 342.662 365.393 342.632L365.063 342.563V344.468ZM367.703 348.867V342.355L368.673 342.558V349.071L367.703 348.867ZM369.651 349.276V342.764L370.411 342.923L371.762 347.114L371.693 345.324V343.193L372.566 343.376V349.888L371.878 349.744L370.491 345.408L370.545 347.129V349.464L369.651 349.276ZM374.724 350.408C374.34 350.327 374.031 350.108 373.797 349.751C373.563 349.391 373.446 348.863 373.446 348.167V345.337C373.446 345.046 373.473 344.791 373.526 344.573C373.581 344.355 373.666 344.179 373.779 344.045C373.895 343.909 374.045 343.82 374.228 343.777C374.412 343.731 374.633 343.736 374.891 343.79C375.171 343.849 375.399 343.94 375.575 344.063C375.751 344.184 375.887 344.336 375.981 344.519C376.077 344.699 376.144 344.91 376.18 345.152C376.216 345.394 376.234 345.663 376.234 345.959V346.422L375.329 346.232V345.551C375.329 345.257 375.299 345.043 375.238 344.907C375.181 344.771 375.069 344.686 374.905 344.652C374.724 344.614 374.599 344.66 374.529 344.791C374.459 344.919 374.424 345.167 374.424 345.535V348.358C374.424 348.767 374.453 349.067 374.511 349.257C374.571 349.445 374.695 349.558 374.884 349.598C375.067 349.636 375.196 349.573 375.271 349.409C375.348 349.243 375.387 348.947 375.387 348.523V347.646L374.898 347.544V346.822L376.234 347.103V350.659L375.8 350.567L375.651 349.896C375.598 350.109 375.485 350.259 375.311 350.346C375.139 350.434 374.944 350.454 374.724 350.408Z" fill="#263238"/>
<path d="M409.469 269.721L408.31 419.349L471.132 436.636L475.75 281.246L409.469 269.721Z" fill="white" stroke="#263238" stroke-linecap="round" stroke-linejoin="round"/>
<path d="M417.682 276.464L416.241 406.888" stroke="#263238" stroke-width="0.75" stroke-linecap="round" stroke-linejoin="round"/>
<path d="M425.924 278.528L425.182 410.572" stroke="#263238" stroke-width="0.75" stroke-linecap="round" stroke-linejoin="round"/>
<path d="M436.647 281.409L436.231 414.775" stroke="#263238" stroke-width="0.75" stroke-linecap="round" stroke-linejoin="round"/>
<path d="M449.033 283.889L447.8 418.458" stroke="#263238" stroke-width="0.75" stroke-linecap="round" stroke-linejoin="round"/>
<path d="M463.053 286.369L459.369 421.086" stroke="#263238" stroke-width="0.75" stroke-linecap="round" stroke-linejoin="round"/>
<path d="M475.75 281.246L510.904 261.078L447.503 251.855L409.469 269.721L475.75 281.246Z" fill="white" stroke="#263238" stroke-linecap="round" stroke-linejoin="round"/>
<path d="M472.602 278.29L500.686 262.176L450.058 254.825L419.672 269.082L472.602 278.29Z" fill="white" stroke="#263238" stroke-width="0.75" stroke-linecap="round" stroke-linejoin="round"/>
<path d="M510.904 261.078L505.141 441.062L471.132 436.636L475.75 281.246L510.904 261.078Z" fill="#263238" stroke="#263238" stroke-linecap="round" stroke-linejoin="round"/>
<path d="M482.627 285.256L478.914 430.547" stroke="white" stroke-width="0.75" stroke-linecap="round" stroke-linejoin="round"/>
<path d="M491.924 278.944L488.627 422.141" stroke="white" stroke-width="0.75" stroke-linecap="round" stroke-linejoin="round"/>
<path d="M501.815 271.934L499.334 418.977" stroke="white" stroke-width="0.75" stroke-linecap="round" stroke-linejoin="round"/>
<path d="M425.33 308.112V337.755L410.984 335.438L412.276 326.721L396.622 339.597L411.904 353.037L412.365 346.547L436.439 352.102L437.36 313.681L425.33 308.112Z" fill="#28A745" stroke="#263238" stroke-linecap="round" stroke-linejoin="round"/>
<path d="M415.157 345.656C415.157 346.006 415.053 346.349 414.858 346.64C414.663 346.931 414.386 347.157 414.062 347.29C413.739 347.424 413.382 347.458 413.039 347.388C412.696 347.319 412.381 347.149 412.135 346.901C411.888 346.652 411.721 346.336 411.654 345.992C411.588 345.648 411.625 345.292 411.761 344.97C411.897 344.647 412.126 344.372 412.418 344.179C412.711 343.987 413.054 343.886 413.404 343.889C413.636 343.889 413.865 343.935 414.078 344.024C414.292 344.113 414.486 344.243 414.649 344.407C414.812 344.572 414.941 344.767 415.028 344.981C415.115 345.195 415.159 345.425 415.157 345.656Z" fill="white" stroke="#263238" stroke-linecap="round" stroke-linejoin="round"/>
<path d="M420.622 349.28C421.598 349.28 422.389 348.489 422.389 347.513C422.389 346.537 421.598 345.745 420.622 345.745C419.646 345.745 418.855 346.537 418.855 347.513C418.855 348.489 419.646 349.28 420.622 349.28Z" fill="white" stroke="#263238" stroke-linecap="round" stroke-linejoin="round"/>
<path d="M429.622 349.354C429.622 349.704 429.518 350.045 429.324 350.336C429.13 350.627 428.854 350.853 428.531 350.987C428.208 351.121 427.853 351.156 427.51 351.088C427.167 351.019 426.852 350.851 426.605 350.604C426.358 350.357 426.19 350.042 426.121 349.699C426.053 349.356 426.088 349.001 426.222 348.678C426.356 348.355 426.582 348.079 426.873 347.885C427.164 347.691 427.505 347.587 427.855 347.587C428.323 347.587 428.773 347.773 429.104 348.104C429.436 348.436 429.622 348.885 429.622 349.354Z" fill="white" stroke="#263238" stroke-linecap="round" stroke-linejoin="round"/>
<path d="M436.855 351.211C436.855 351.56 436.751 351.902 436.557 352.192C436.363 352.483 436.087 352.71 435.764 352.843C435.441 352.977 435.085 353.012 434.743 352.944C434.4 352.876 434.085 352.707 433.838 352.46C433.591 352.213 433.422 351.898 433.354 351.555C433.286 351.213 433.321 350.857 433.455 350.534C433.588 350.211 433.815 349.935 434.106 349.741C434.396 349.547 434.738 349.443 435.087 349.443C435.556 349.443 436.006 349.629 436.337 349.961C436.669 350.292 436.855 350.742 436.855 351.211Z" fill="white" stroke="#263238" stroke-linecap="round" stroke-linejoin="round"/>
<path d="M437.686 342.3C437.686 342.649 437.583 342.991 437.389 343.282C437.194 343.572 436.918 343.799 436.595 343.933C436.272 344.066 435.917 344.101 435.574 344.033C435.231 343.965 434.917 343.797 434.669 343.549C434.422 343.302 434.254 342.987 434.186 342.645C434.118 342.302 434.153 341.946 434.286 341.623C434.42 341.301 434.647 341.024 434.937 340.83C435.228 340.636 435.57 340.532 435.919 340.532C436.388 340.532 436.837 340.719 437.169 341.05C437.5 341.382 437.686 341.831 437.686 342.3Z" fill="white" stroke="#263238" stroke-linecap="round" stroke-linejoin="round"/>
<path d="M438.028 332.379C438.028 332.729 437.924 333.07 437.73 333.361C437.536 333.652 437.26 333.878 436.937 334.012C436.614 334.146 436.259 334.181 435.916 334.112C435.573 334.044 435.258 333.876 435.011 333.629C434.764 333.382 434.595 333.067 434.527 332.724C434.459 332.381 434.494 332.026 434.628 331.703C434.762 331.38 434.988 331.104 435.279 330.91C435.569 330.715 435.911 330.612 436.261 330.612C436.729 330.612 437.179 330.798 437.51 331.129C437.842 331.461 438.028 331.91 438.028 332.379Z" fill="white" stroke="#263238" stroke-linecap="round" stroke-linejoin="round"/>
<path d="M438.533 322.547C438.533 322.897 438.429 323.239 438.235 323.529C438.041 323.82 437.765 324.046 437.442 324.18C437.119 324.314 436.764 324.349 436.421 324.281C436.078 324.213 435.763 324.044 435.516 323.797C435.269 323.55 435.1 323.235 435.032 322.892C434.964 322.549 434.999 322.194 435.133 321.871C435.267 321.548 435.493 321.272 435.784 321.078C436.074 320.884 436.416 320.78 436.766 320.78C437.234 320.78 437.684 320.966 438.015 321.298C438.347 321.629 438.533 322.079 438.533 322.547Z" fill="white" stroke="#263238" stroke-linecap="round" stroke-linejoin="round"/>
<path d="M438.355 314.557C438.355 314.908 438.251 315.25 438.056 315.541C437.861 315.832 437.584 316.058 437.26 316.192C436.936 316.325 436.58 316.359 436.237 316.29C435.894 316.22 435.579 316.05 435.332 315.802C435.086 315.553 434.919 315.237 434.852 314.893C434.786 314.549 434.823 314.193 434.959 313.871C435.095 313.548 435.324 313.273 435.616 313.081C435.909 312.888 436.252 312.787 436.602 312.79C436.834 312.79 437.063 312.836 437.276 312.925C437.49 313.014 437.684 313.144 437.847 313.309C438.01 313.473 438.138 313.668 438.226 313.882C438.313 314.097 438.357 314.326 438.355 314.557Z" fill="white" stroke="#263238" stroke-linecap="round" stroke-linejoin="round"/>
<path d="M433.32 311.023C433.323 311.373 433.222 311.716 433.029 312.009C432.837 312.301 432.562 312.53 432.239 312.666C431.917 312.802 431.561 312.839 431.217 312.773C430.873 312.706 430.557 312.539 430.308 312.293C430.06 312.046 429.89 311.731 429.821 311.388C429.751 311.045 429.785 310.689 429.919 310.365C430.052 310.041 430.278 309.764 430.569 309.569C430.86 309.374 431.203 309.27 431.553 309.27C432.019 309.27 432.466 309.454 432.797 309.783C433.128 310.111 433.316 310.557 433.32 311.023Z" fill="white" stroke="#263238" stroke-linecap="round" stroke-linejoin="round"/>
<path d="M425.761 309.939C426.737 309.939 427.528 309.147 427.528 308.171C427.528 307.195 426.737 306.404 425.761 306.404C424.785 306.404 423.993 307.195 423.993 308.171C423.993 309.147 424.785 309.939 425.761 309.939Z" fill="white" stroke="#263238" stroke-linecap="round" stroke-linejoin="round"/>
<path d="M427.023 317.81C427.023 318.159 426.919 318.501 426.725 318.792C426.531 319.082 426.255 319.309 425.932 319.443C425.609 319.576 425.254 319.611 424.911 319.543C424.568 319.475 424.253 319.307 424.006 319.06C423.759 318.812 423.591 318.497 423.522 318.155C423.454 317.812 423.489 317.456 423.623 317.133C423.757 316.811 423.983 316.535 424.274 316.34C424.565 316.146 424.906 316.043 425.256 316.043C425.724 316.043 426.174 316.229 426.505 316.56C426.837 316.892 427.023 317.341 427.023 317.81Z" fill="white" stroke="#263238" stroke-linecap="round" stroke-linejoin="round"/>
<path d="M426.518 327.448C426.518 327.798 426.415 328.14 426.22 328.43C426.026 328.721 425.75 328.947 425.427 329.081C425.104 329.215 424.749 329.25 424.406 329.182C424.063 329.114 423.748 328.945 423.501 328.698C423.254 328.451 423.086 328.136 423.017 327.793C422.949 327.45 422.984 327.095 423.118 326.772C423.252 326.449 423.478 326.173 423.769 325.979C424.06 325.785 424.401 325.681 424.751 325.681C424.983 325.679 425.214 325.723 425.429 325.812C425.645 325.9 425.84 326.03 426.005 326.194C426.169 326.359 426.3 326.554 426.388 326.77C426.476 326.985 426.52 327.216 426.518 327.448Z" fill="white" stroke="#263238" stroke-linecap="round" stroke-linejoin="round"/>
<path d="M426.028 337.072C426.028 337.422 425.924 337.763 425.73 338.054C425.536 338.345 425.26 338.571 424.937 338.705C424.614 338.839 424.259 338.874 423.916 338.805C423.573 338.737 423.258 338.569 423.011 338.322C422.764 338.075 422.596 337.76 422.527 337.417C422.459 337.074 422.494 336.719 422.628 336.396C422.762 336.073 422.988 335.797 423.279 335.603C423.569 335.408 423.911 335.305 424.261 335.305C424.729 335.305 425.179 335.491 425.51 335.822C425.842 336.154 426.028 336.603 426.028 337.072Z" fill="white" stroke="#263238" stroke-linecap="round" stroke-linejoin="round"/>
<path d="M413.583 335.557C413.585 335.907 413.484 336.251 413.292 336.543C413.1 336.836 412.825 337.065 412.502 337.201C412.179 337.337 411.823 337.374 411.48 337.307C411.136 337.241 410.82 337.074 410.571 336.827C410.322 336.58 410.152 336.266 410.083 335.922C410.014 335.579 410.048 335.223 410.181 334.899C410.314 334.575 410.541 334.299 410.832 334.104C411.123 333.909 411.465 333.805 411.815 333.805C412.281 333.805 412.729 333.989 413.06 334.317C413.391 334.645 413.579 335.091 413.583 335.557Z" fill="white" stroke="#263238" stroke-linecap="round" stroke-linejoin="round"/>
<path d="M413.924 326.988C413.924 327.338 413.821 327.679 413.626 327.97C413.432 328.26 413.156 328.487 412.833 328.621C412.51 328.755 412.155 328.79 411.812 328.721C411.469 328.653 411.154 328.485 410.907 328.238C410.66 327.991 410.492 327.676 410.423 327.333C410.355 326.99 410.39 326.635 410.524 326.312C410.658 325.989 410.884 325.713 411.175 325.519C411.466 325.324 411.807 325.221 412.157 325.221C412.626 325.221 413.075 325.407 413.407 325.738C413.738 326.07 413.924 326.519 413.924 326.988Z" fill="white" stroke="#263238" stroke-linecap="round" stroke-linejoin="round"/>
<path d="M399.028 339.433C399.028 339.783 398.925 340.125 398.73 340.415C398.536 340.706 398.26 340.932 397.937 341.066C397.614 341.2 397.259 341.235 396.916 341.167C396.573 341.099 396.258 340.93 396.011 340.683C395.764 340.436 395.596 340.121 395.528 339.778C395.459 339.435 395.494 339.08 395.628 338.757C395.762 338.434 395.988 338.158 396.279 337.964C396.57 337.77 396.911 337.666 397.261 337.666C397.73 337.666 398.179 337.852 398.511 338.184C398.842 338.515 399.028 338.965 399.028 339.433Z" fill="white" stroke="#263238" stroke-linecap="round" stroke-linejoin="round"/>
<path d="M413.657 354.225C413.657 354.575 413.553 354.917 413.359 355.207C413.165 355.498 412.889 355.724 412.566 355.858C412.243 355.992 411.888 356.027 411.545 355.959C411.202 355.891 410.887 355.722 410.64 355.475C410.393 355.228 410.224 354.913 410.156 354.57C410.088 354.227 410.123 353.872 410.257 353.549C410.391 353.226 410.617 352.95 410.908 352.756C411.198 352.562 411.54 352.458 411.89 352.458C412.358 352.458 412.808 352.644 413.139 352.976C413.471 353.307 413.657 353.757 413.657 354.225Z" fill="white" stroke="#263238" stroke-linecap="round" stroke-linejoin="round"/>
<path d="M404.568 345.656C404.568 346.006 404.464 346.349 404.269 346.64C404.074 346.931 403.797 347.157 403.473 347.29C403.15 347.424 402.793 347.458 402.45 347.388C402.107 347.319 401.792 347.149 401.546 346.901C401.299 346.652 401.132 346.336 401.065 345.992C400.999 345.648 401.036 345.292 401.172 344.97C401.308 344.647 401.537 344.372 401.829 344.179C402.122 343.987 402.465 343.886 402.815 343.889C403.047 343.889 403.276 343.935 403.489 344.024C403.703 344.113 403.897 344.243 404.06 344.407C404.223 344.572 404.351 344.767 404.439 344.981C404.526 345.195 404.57 345.425 404.568 345.656Z" fill="white" stroke="#263238" stroke-linecap="round" stroke-linejoin="round"/>
<path d="M405.756 333.552C405.756 333.902 405.652 334.244 405.458 334.534C405.264 334.825 404.988 335.051 404.665 335.185C404.342 335.319 403.987 335.354 403.644 335.286C403.301 335.217 402.986 335.049 402.739 334.802C402.492 334.555 402.323 334.24 402.255 333.897C402.187 333.554 402.222 333.199 402.356 332.876C402.49 332.553 402.716 332.277 403.007 332.083C403.297 331.889 403.639 331.785 403.989 331.785C404.457 331.785 404.907 331.971 405.238 332.303C405.57 332.634 405.756 333.084 405.756 333.552Z" fill="white" stroke="#263238" stroke-linecap="round" stroke-linejoin="round"/>
<path d="M30.0009 389.854L164.465 329.765L544.26 436.502L465.8 495.893" fill="white"/>
<path d="M30.0009 389.854L164.465 329.765L544.26 436.502L465.8 495.893" stroke="#263238" stroke-linecap="round" stroke-linejoin="round"/>
<path d="M58.872 397.413L167.792 348.745L475.424 435.21L411.875 483.299" fill="white"/>
<path d="M58.872 397.413L167.792 348.745L475.424 435.21L411.875 483.299" stroke="#263238" stroke-linecap="round" stroke-linejoin="round"/>
<path d="M167.792 348.745V362.334L461.359 445.309L475.424 435.21L172.455 350.498" fill="#263238"/>
<path d="M58.872 411.002L167.792 362.334L460.632 444.626" stroke="#263238" stroke-linecap="round" stroke-linejoin="round"/>
<path d="M622.779 495.225L544.26 436.502L466.661 495.225H622.779Z" fill="#263238"/>
<path d="M145.99 442.042C175.297 442.042 199.054 431.09 199.054 417.581C199.054 404.072 175.297 393.121 145.99 393.121C116.684 393.121 92.9262 404.072 92.9262 417.581C92.9262 431.09 116.684 442.042 145.99 442.042Z" fill="#007BFF"/>
<path opacity="0.5" d="M145.99 442.042C175.297 442.042 199.054 431.09 199.054 417.581C199.054 404.072 175.297 393.121 145.99 393.121C116.684 393.121 92.9262 404.072 92.9262 417.581C92.9262 431.09 116.684 442.042 145.99 442.042Z" fill="white"/>
<path d="M158.97 123.138C158.97 123.138 162.683 132.049 161.941 136.504C161.198 140.96 151.188 144.672 149.703 145.415C148.218 146.157 140.436 142.816 140.436 134.276C140.436 125.737 154.515 116.098 158.97 123.138Z" fill="white" stroke="#263238" stroke-linecap="round" stroke-linejoin="round"/>
<path d="M154.619 99.0192L175.5 96.5984C176.477 96.4916 177.466 96.5799 178.409 96.8582C179.352 97.1365 180.23 97.5992 180.992 98.2195C181.755 98.8398 182.387 99.6054 182.851 100.472C183.316 101.338 183.603 102.288 183.698 103.267C183.781 104.272 183.658 105.284 183.338 106.24C183.017 107.197 182.504 108.078 181.832 108.83C181.159 109.582 180.34 110.189 179.425 110.613C178.51 111.038 177.518 111.272 176.51 111.301L157.203 111.702L154.619 99.0192Z" fill="#263238"/>
<path d="M157.084 94.5637C157.084 94.5637 161.54 93.0786 164.51 94.5637C167.48 96.0489 170.079 98.2766 169.708 99.7617C169.337 101.247 167.109 100.876 164.139 101.247C161.168 101.618 157.975 103.668 157.352 102.093C156.728 100.519 157.084 94.5637 157.084 94.5637Z" fill="white" stroke="#263238" stroke-linecap="round" stroke-linejoin="round"/>
<path d="M168.045 100.994L189.059 100.46C190.046 100.442 191.026 100.621 191.942 100.986C192.858 101.351 193.693 101.896 194.397 102.587C195.1 103.278 195.659 104.103 196.041 105.013C196.422 105.922 196.619 106.899 196.619 107.885C196.621 108.901 196.414 109.905 196.013 110.838C195.611 111.77 195.023 112.61 194.284 113.306C193.544 114.002 192.671 114.539 191.716 114.884C190.761 115.229 189.746 115.374 188.733 115.311L169.426 113.96L168.045 100.994Z" fill="#263238"/>
<path d="M159.936 100.994L170.658 101.232C171.348 101.765 171.917 102.437 172.329 103.205C172.741 103.972 172.987 104.818 173.049 105.687C173.069 108.264 172.745 110.831 172.084 113.321H160.649C159.086 112.102 157.927 110.441 157.322 108.554C156.371 105.509 159.936 100.994 159.936 100.994Z" fill="#263238"/>
<path d="M156 149.425C156 149.425 169.5 151.044 176.406 151.682C183.312 152.321 198.921 143.544 207.683 141.286C218.079 138.568 223.559 144.464 226.277 148.088C228.995 151.712 248.079 164.841 248.079 164.841L251.702 174.821L236.287 179.811C236.287 179.811 230.346 172.548 221.316 161.217C212.287 149.885 208.247 144.123 200.955 148.593C193.663 153.063 183.238 161.217 175.069 159.405C166.901 157.593 156 149.425 156 149.425Z" fill="#263238"/>
<path d="M161.941 406.844L163.01 407.2L184.96 414.388C184.96 414.388 187.738 415.963 186.936 418.354C186.134 420.745 163.173 423.507 154.01 423.507C144.847 423.507 138.936 422.72 138.936 419.141C138.936 415.562 161.941 406.844 161.941 406.844Z" fill="#007BFF" stroke="#263238" stroke-linecap="round" stroke-linejoin="round"/>
<path d="M186.98 418.324C187.128 417.826 187.143 417.298 187.023 416.792C186.903 416.287 186.653 415.821 186.297 415.443C177.645 417.809 168.761 419.223 159.802 419.661C152.938 420.254 146.041 420.393 139.159 420.076C140.183 422.824 145.812 423.477 154.01 423.477C163.173 423.507 186.193 420.73 186.98 418.324Z" fill="white" stroke="#263238" stroke-linecap="round" stroke-linejoin="round"/>
<path d="M121.916 393.359C121.916 393.359 133.411 388.592 135.401 392.557C137.391 396.522 132.624 402.478 129.847 403.666C127.07 404.854 125.08 405.656 123.505 407.631C121.931 409.606 117.149 414.388 111.995 413.572C106.842 412.755 106.827 406.042 107.228 404.839C107.629 403.636 121.916 393.359 121.916 393.359Z" fill="#007BFF" stroke="#263238" stroke-linecap="round" stroke-linejoin="round"/>
<path d="M134.362 391.592C134.035 394.814 133.099 398.349 130.738 399.671C125.971 402.314 123.862 401.78 119.629 407.096C118.326 408.631 116.637 409.792 114.738 410.461C112.838 411.129 110.795 411.28 108.817 410.898L108.342 411.24C108.727 411.895 109.256 412.455 109.889 412.877C110.522 413.299 111.242 413.572 111.995 413.676C117.149 414.478 121.916 409.71 123.505 407.735C125.094 405.76 127.07 404.958 129.847 403.77C132.624 402.582 137.391 396.626 135.401 392.661C135.182 392.2 134.817 391.824 134.362 391.592Z" fill="white" stroke="#263238" stroke-linecap="round" stroke-linejoin="round"/>
<path d="M112.783 227.499C112.783 227.499 109.604 240.597 111.995 246.538C114.387 252.479 114.773 262.013 115.174 265.191C115.575 268.37 111.193 294.894 109.604 308.84C108.015 322.785 101.273 338.201 104.05 348.122C106.827 358.042 104.451 394.161 105.253 399.7C106.055 405.24 107.629 410.096 108.817 410.809C110.005 411.522 114.372 411.997 117.951 410.408C121.53 408.819 123.891 396.923 124.693 393.359C125.495 389.795 128.659 348.122 129.847 341.765C131.035 335.409 134.614 306.85 134.614 306.85C134.614 306.85 137.777 330.27 136.99 336.552C136.203 342.834 133.411 355.206 134.614 366.255C135.817 377.304 137.777 418.621 137.777 418.621C139.495 419.611 141.376 420.285 143.332 420.611C145.322 420.611 160.396 410.289 161.985 406.725C163.574 403.161 161.985 396.804 161.985 396.804C161.985 396.804 164.762 333.716 167.54 312.285C170.317 290.855 163.975 232.533 163.975 232.533C163.975 232.533 132.624 239.795 112.783 227.499Z" fill="#263238"/>
<path d="M134.213 302.097L129.06 273.137L120.327 258.048" stroke="white" stroke-linecap="round" stroke-linejoin="round"/>
<path d="M160.455 91.5935C161.39 94.1386 162.018 96.7859 162.327 99.4796C162.327 102.093 160.842 103.935 161.198 105.851C161.555 107.767 164.569 110.722 161.955 115.593C159.342 120.465 161.569 127.593 157.827 129.093C155.304 130.023 152.644 130.525 149.956 130.578L148.827 138.821L130.084 132.88V117.851C130.084 117.851 137.956 118.222 140.956 114.465C143.956 110.707 143.198 102.851 144.698 97.5934C146.198 92.336 152.198 88.9796 154.827 88.9796C157.456 88.9796 160.455 91.5935 160.455 91.5935Z" fill="white" stroke="#263238" stroke-linecap="round" stroke-linejoin="round"/>
<path d="M165.832 84.8064C165.431 86.2379 164.749 87.5753 163.826 88.7406C162.903 89.9058 161.757 90.8757 160.456 91.5935C156.698 93.8509 151.827 93.0786 151.827 94.9796C151.827 96.8806 155.198 96.4647 154.069 101.351C153.355 104.342 151.81 107.07 149.614 109.222C149.614 109.222 153 113.351 149.614 114.093C146.228 114.836 145.5 119.722 141.371 120.851C137.243 121.979 133.5 124.965 130.129 121.965C126.758 118.965 115.872 106.593 114.372 98.3509C112.872 90.1083 121.129 81.4797 121.129 81.4797C121.129 81.4797 120.758 76.6084 123.758 74.7223C126.758 72.8362 134.777 72.2124 135.535 69.2124C138.683 56.7373 160.322 68.4847 164.124 75.0787C165.886 77.9949 166.495 81.4643 165.832 84.8064Z" fill="#263238"/>
<path d="M158.97 82.0589C159.006 83.6748 158.613 85.2714 157.83 86.6856C157.047 88.0997 155.903 89.2809 154.515 90.1083C149.703 92.7816 138.995 90.643 135.208 95.7222C131.421 100.801 134.139 108.821 128.525 110.158" stroke="white" stroke-width="0.5" stroke-linecap="round" stroke-linejoin="round"/>
<path d="M150.743 98.9004C150.743 98.9004 145.649 100.504 143.51 103.712C141.371 106.92 140.302 114.405 133.886 116.276" stroke="white" stroke-width="0.5" stroke-linecap="round" stroke-linejoin="round"/>
<path d="M149.956 115.965C149.956 115.965 146.985 106.965 142.827 109.222C138.669 111.479 142.084 118.222 144.312 120.093C146.54 121.965 149.183 119.351 149.183 119.351" fill="white"/>
<path d="M149.956 115.965C149.956 115.965 146.985 106.965 142.827 109.222C138.669 111.479 142.084 118.222 144.312 120.093C146.54 121.965 149.183 119.351 149.183 119.351" stroke="#263238" stroke-linecap="round" stroke-linejoin="round"/>
<path d="M121.084 134.336C116.435 137.68 112.531 141.954 109.619 146.885C105.164 154.756 110.956 191.335 112.456 201.078C113.956 210.82 110.585 226.949 113.213 231.449C115.842 235.949 124.456 239.692 132.698 240.449C140.941 241.206 153.698 240.078 158.569 238.578C163.441 237.078 166.069 232.949 166.069 231.078C166.069 229.206 165.698 206.335 165.698 201.449C165.698 196.563 165.327 161.707 162.327 154.964C159.597 149.114 154.971 144.356 149.198 141.464C144.698 139.222 127.782 130.965 121.084 134.336Z" fill="#007BFF" stroke="#263238" stroke-linecap="round" stroke-linejoin="round"/>
<path d="M154.337 178.905C154.337 178.905 150.327 182.543 139.01 184.014" stroke="#263238" stroke-miterlimit="10"/>
<path d="M146.258 194.528C145.181 195.657 143.974 196.654 142.664 197.499" stroke="#263238" stroke-miterlimit="10"/>
<path d="M155.792 178.905C154.048 183.277 151.779 187.421 149.035 191.246" stroke="#263238" stroke-miterlimit="10"/>
<path d="M153.965 219.39C147.256 228.116 137.474 233.958 126.609 235.726C126.609 235.726 142.664 236.097 153.238 224.781" stroke="#263238" stroke-linecap="round" stroke-linejoin="round"/>
<path d="M124.456 127.965C124.456 127.965 135.327 128.722 142.456 132.836C149.584 136.95 154.456 141.093 157.069 141.836C159.683 142.578 164.569 142.964 163.01 143.321C161.451 143.677 159.639 144.078 155.896 145.192C152.154 146.306 146.896 144.078 139.025 140.321C131.154 136.563 122.525 134.38 121.025 134.38C119.525 134.38 121.456 127.965 124.456 127.965Z" fill="#007BFF" stroke="#263238" stroke-linecap="round" stroke-linejoin="round"/>
<path d="M188.198 165.464C188.198 165.464 200.658 173.796 202.485 179.989" stroke="#263238" stroke-linecap="round" stroke-linejoin="round"/>
<path d="M187.44 151.964L174.327 121.296C172.669 119.436 170.777 117.799 168.698 116.425C168.359 116.268 168.062 116.034 167.831 115.741C167.6 115.448 167.441 115.104 167.367 114.738C167.293 114.372 167.307 113.994 167.406 113.634C167.506 113.275 167.689 112.943 167.941 112.668C167.941 112.668 171.698 113.425 171.698 111.925C171.653 109.433 171.399 106.949 170.941 104.499C170.569 103.371 169.455 102.613 169.455 101.529C169.455 100.445 172.084 98.9004 175.084 99.6578C178.084 100.415 177.579 99.9697 177.579 99.9697C181.871 99.0192 182.703 99.9697 184.841 103.772C186.179 106.71 186.819 109.917 186.713 113.143C186.713 115.029 184.455 120.643 184.455 120.643L200.584 151.831L187.44 151.964Z" fill="white" stroke="#263238" stroke-linecap="round" stroke-linejoin="round"/>
<path d="M188.94 160.593C188.94 160.593 184.069 160.593 184.485 159.464C184.901 158.336 183.371 154.207 183.371 152.336C183.371 150.464 186.742 148.207 190.797 147.464C194.851 146.722 199.426 148.207 200.926 148.593C202.426 148.979 202.797 151.964 203.896 153.836C204.995 155.707 205.767 157.964 205.025 159.464C204.305 160.515 203.262 161.303 202.054 161.707L188.94 160.593Z" fill="#007BFF" stroke="#263238" stroke-linecap="round" stroke-linejoin="round"/>
<path d="M134.956 154.964C134.956 154.964 137.584 145.964 142.827 144.093C148.069 142.222 154.456 144.836 160.827 148.964C167.198 153.093 188.198 165.464 188.198 165.464L185.94 156.464C185.94 156.464 199.44 152.336 202.812 158.707C206.183 165.078 208.44 188.335 208.44 191.38C208.44 194.424 200.569 196.994 195.698 196.622C190.827 196.251 147.698 174.88 147.698 174.88" fill="#007BFF"/>
<path d="M134.956 154.964C134.956 154.964 137.584 145.964 142.827 144.093C148.069 142.222 154.456 144.836 160.827 148.964C167.198 153.093 188.198 165.464 188.198 165.464L185.94 156.464C185.94 156.464 199.44 152.336 202.812 158.707C206.183 165.078 208.44 188.335 208.44 191.38C208.44 194.424 200.569 196.994 195.698 196.622C190.827 196.251 147.698 174.88 147.698 174.88" stroke="#263238" stroke-linecap="round" stroke-linejoin="round"/>
<path d="M193.723 169.058C197.595 170.206 201.031 172.493 203.584 175.623" stroke="#263238" stroke-linecap="round" stroke-linejoin="round"/>
</svg>
